<svg xmlns="http://www.w3.org/2000/svg" xmlns:xlink="http://www.w3.org/1999/xlink" xmlns:lucid="lucid" width="1680" height="1260"><g transform="translate(-160 -3.552713678800501e-15)" lucid:page-tab-id="0_0"><path d="M0 0h1870.4v1323.2H0z" fill="#fff"/><path d="M380 946a6 6 0 0 1 6-6h1388a6 6 0 0 1 6 6v288a6 6 0 0 1-6 6H386a6 6 0 0 1-6-6zM180 446a6 6 0 0 1 6-6h208a6 6 0 0 1 6 6v68a6 6 0 0 1-6 6H186a6 6 0 0 1-6-6z" stroke="#5e5e5e" stroke-width="3" fill="#fff"/><use xlink:href="#a" transform="matrix(1,0,0,1,185,445) translate(18.086419753086417 39.65277777777778)"/><use xlink:href="#b" transform="matrix(1,0,0,1,185,445) translate(122.8395061728395 39.65277777777778)"/><path d="M180 601.4a6 6 0 0 1 6-6h208a6 6 0 0 1 6 6v68a6 6 0 0 1-6 6H186a6 6 0 0 1-6-6z" stroke="#5e5e5e" stroke-width="3" fill="#fff"/><use xlink:href="#c" transform="matrix(1,0,0,1,185,600.3992910665411) translate(1.4506172839506064 39.65277777777778)"/><use xlink:href="#d" transform="matrix(1,0,0,1,185,600.3992910665411) translate(134.59876543209876 39.65277777777778)"/><path d="M1160 246a6 6 0 0 1 6-6h208a6 6 0 0 1 6 6v68a6 6 0 0 1-6 6h-208a6 6 0 0 1-6-6z" stroke="#5e5e5e" stroke-width="3" fill="#fff"/><use xlink:href="#e" transform="matrix(1,0,0,1,1165,245) translate(60.61728395061728 26.52777777777778)"/><use xlink:href="#f" transform="matrix(1,0,0,1,1165,245) translate(39.691358024691354 53.19444444444445)"/><path d="M700 446a6 6 0 0 1 6-6h448a6 6 0 0 1 6 6v388a6 6 0 0 1-6 6H706a6 6 0 0 1-6-6z" stroke="#5e5e5e" stroke-width="3" fill="#fff"/><use xlink:href="#g" transform="matrix(1,0,0,1,705,445) translate(144.32098765432096 133.55902777777777)"/><use xlink:href="#h" transform="matrix(1,0,0,1,705,445) translate(199.69135802469134 133.55902777777777)"/><use xlink:href="#i" transform="matrix(1,0,0,1,705,445) translate(225 160.22569444444443)"/><use xlink:href="#j" transform="matrix(1,0,0,1,705,445) translate(175.61728395061726 186.8923611111111)"/><use xlink:href="#k" transform="matrix(1,0,0,1,705,445) translate(196.0185185185185 213.55902777777774)"/><use xlink:href="#l" transform="matrix(1,0,0,1,705,445) translate(194.19753086419755 240.2256944444444)"/><use xlink:href="#m" transform="matrix(1,0,0,1,705,445) translate(215.74074074074073 266.8923611111111)"/><path d="M460 1006a6 6 0 0 1 6-6h248a6 6 0 0 1 6 6v68a6 6 0 0 1-6 6H466a6 6 0 0 1-6-6z" stroke="#5e5e5e" stroke-width="3" fill="#fff"/><use xlink:href="#n" transform="matrix(1,0,0,1,465,1005) translate(13.395061728395063 39.65277777777778)"/><use xlink:href="#o" transform="matrix(1,0,0,1,465,1005) translate(100.98765432098764 39.65277777777778)"/><use xlink:href="#p" transform="matrix(1,0,0,1,465,1005) translate(200.80246913580245 39.65277777777778)"/><path d="M760 1006a6 6 0 0 1 6-6h268a6 6 0 0 1 6 6v68a6 6 0 0 1-6 6H766a6 6 0 0 1-6-6z" stroke="#5e5e5e" stroke-width="3" fill="#fff"/><use xlink:href="#q" transform="matrix(1,0,0,1,765,1005) translate(38.20987654320987 39.65277777777778)"/><use xlink:href="#o" transform="matrix(1,0,0,1,765,1005) translate(96.17283950617283 39.65277777777778)"/><use xlink:href="#p" transform="matrix(1,0,0,1,765,1005) translate(195.98765432098764 39.65277777777778)"/><path d="M1080 1006a6 6 0 0 1 6-6h248a6 6 0 0 1 6 6v68a6 6 0 0 1-6 6h-248a6 6 0 0 1-6-6z" stroke="#5e5e5e" stroke-width="3" fill="#fff"/><use xlink:href="#r" transform="matrix(1,0,0,1,1092,1012) translate(37.96913580246914 31.77777777777778)"/><use xlink:href="#s" transform="matrix(1,0,0,1,1092,1012) translate(94.75925925925927 31.77777777777778)"/><use xlink:href="#p" transform="matrix(1,0,0,1,1092,1012) translate(162.22839506172838 31.77777777777778)"/><path d="M180 759.85a6 6 0 0 1 6-6h208a6 6 0 0 1 6 6v68a6 6 0 0 1-6 6H186a6 6 0 0 1-6-6z" stroke="#5e5e5e" stroke-width="3" fill="#fff"/><use xlink:href="#t" transform="matrix(1,0,0,1,185,758.848072867591) translate(34.10493827160494 39.65277777777778)"/><use xlink:href="#d" transform="matrix(1,0,0,1,185,758.848072867591) translate(101.94444444444443 39.65277777777778)"/><path d="M1380 1006a6 6 0 0 1 6-6h188a6 6 0 0 1 6 6v68a6 6 0 0 1-6 6h-188a6 6 0 0 1-6-6z" stroke="#5e5e5e" stroke-width="3" fill="#fff"/><use xlink:href="#u" transform="matrix(1,0,0,1,1385,1005) translate(42.592592592592595 39.65277777777778)"/><use xlink:href="#p" transform="matrix(1,0,0,1,1385,1005) translate(111.60493827160494 39.65277777777778)"/><path d="M180 246a6 6 0 0 1 6-6h208a6 6 0 0 1 6 6v68a6 6 0 0 1-6 6H186a6 6 0 0 1-6-6z" stroke="#5e5e5e" stroke-width="3" fill="#fff"/><use xlink:href="#v" transform="matrix(1,0,0,1,185,245) translate(14.043209876543202 39.65277777777778)"/><use xlink:href="#w" transform="matrix(1,0,0,1,185,245) translate(112.62345679012346 39.65277777777778)"/><path d="M1600 246a6 6 0 0 1 6-6h208a6 6 0 0 1 6 6v68a6 6 0 0 1-6 6h-208a6 6 0 0 1-6-6z" stroke="#5e5e5e" stroke-width="3" fill="#fff"/><use xlink:href="#x" transform="matrix(1,0,0,1,1612,252) translate(48.03086419753086 31.77777777777778)"/><path d="M1597.5 280H1400" stroke="#5e5e5e" stroke-width="2" fill="none"/><path d="M1598.5 281h-1.03v-2h1.03z" stroke="#5e5e5e" stroke-width=".05" fill="#5e5e5e"/><path d="M1384.74 280l14.26-4.63v9.26z" stroke="#5e5e5e" stroke-width="2" fill="#5e5e5e"/><path d="M1380 246a6 6 0 0 1 6-6h228a6 6 0 0 1 6 6v48a6 6 0 0 1-6 6h-228a6 6 0 0 1-6-6z" stroke="#000" stroke-opacity="0" stroke-width="3" fill="#fff" fill-opacity="0"/><use xlink:href="#y" transform="matrix(1,0,0,1,1385,244.99999999999997) translate(30.629629629629648 29.84722222222222)"/><use xlink:href="#z" transform="matrix(1,0,0,1,1385,244.99999999999997) translate(102.62962962962963 29.84722222222222)"/><path d="M760 246a6 6 0 0 1 6-6h188a6 6 0 0 1 6 6v68a6 6 0 0 1-6 6H766a6 6 0 0 1-6-6z" stroke="#5e5e5e" stroke-width="3" fill="#fff"/><use xlink:href="#A" transform="matrix(1,0,0,1,765,244.99999999999997) translate(59.876543209876544 39.65277777777778)"/><path d="M885.9 61.5h-51.84c-2.08 0-3.8-1.7-3.8-3.78V23.78c0-2.08 1.72-3.78 3.8-3.78h51.83c2.07 0 3.8 1.7 3.8 3.78v33.9c0 2.1-1.67 3.8-3.75 3.8l-.06.02zM834.1 22.52c-.7 0-1.3.54-1.3 1.25v33.9c0 .7.6 1.28 1.3 1.28h51.83c.7 0 1.25-.58 1.25-1.28v-33.9c0-.7-.54-1.25-1.25-1.25zM885.28 78h-50.6c-2.44 0-4.4-1.97-4.4-4.4v-5.47c0-2.43 1.96-4.4 4.4-4.43h50.6c2.44 0 4.46 2 4.46 4.43v5.47c0 2.44-2.02 4.4-4.46 4.4zm-50.6-11.78c-1 0-1.84.87-1.84 1.9v5.48c0 1.04.83 1.87 1.84 1.88h50.6c1.07 0 1.9-.85 1.9-1.9v-5.45c0-1.05-.83-1.9-1.9-1.9z" stroke="#fff" stroke-opacity="0" fill="#232f3e"/><path d="M883.73 56.77h-47.46c-.7 0-1.25-.58-1.25-1.25V25.94c0-.67.55-1.25 1.25-1.25h47.46c.7 0 1.25.57 1.25 1.24v29.58c0 .67-.55 1.25-1.25 1.25zm-46.16-2.54h44.86v-27h-44.86zM869.48 68.43h14.24c.84 0 1.26.42 1.26 1.26v2.36c0 .84-.42 1.26-1.26 1.26h-14.24c-.84 0-1.26-.42-1.26-1.26V69.7c0-.85.42-1.27 1.26-1.27z" stroke="#fff" stroke-opacity="0" fill="#232f3e"/><use xlink:href="#B" transform="matrix(1,0,0,1,800.2564102564103,86.99999999999997) translate(31.69753086419753 17.77777777777778)"/><path d="M860 79v141" stroke="#5e5e5e" stroke-width="2" fill="none"/><path d="M861 79.03h-2V78h2z" stroke="#5e5e5e" stroke-width=".05" fill="#5e5e5e"/><path d="M860 235.26L855.37 221h9.26z" stroke="#5e5e5e" stroke-width="2" fill="#5e5e5e"/><path d="M962.5 280H1140" stroke="#5e5e5e" stroke-width="2" fill="none"/><path d="M962.53 281h-1.03v-2h1.03z" stroke="#5e5e5e" stroke-width=".05" fill="#5e5e5e"/><path d="M1155.26 280l-14.26 4.63v-9.26z" stroke="#5e5e5e" stroke-width="2" fill="#5e5e5e"/><path d="M860 322.5V420" stroke="#5e5e5e" stroke-width="2" fill="none"/><path d="M861 322.53h-2v-1.03h2z" stroke="#5e5e5e" stroke-width=".05" fill="#5e5e5e"/><path d="M860 435.26L855.37 421h9.26z" stroke="#5e5e5e" stroke-width="2" fill="#5e5e5e"/><path d="M697.5 480H420" stroke="#5e5e5e" stroke-width="2" fill="none"/><path d="M698.5 481h-1.03v-2h1.03z" stroke="#5e5e5e" stroke-width=".05" fill="#5e5e5e"/><path d="M404.74 480l14.26-4.63v9.26z" stroke="#5e5e5e" stroke-width="2" fill="#5e5e5e"/><path d="M470 446a6 6 0 0 1 6-6h168a6 6 0 0 1 6 6v28a6 6 0 0 1-6 6H476a6 6 0 0 1-6-6z" stroke="#000" stroke-opacity="0" stroke-width="3" fill="#fff" fill-opacity="0"/><use xlink:href="#C" transform="matrix(1,0,0,1,475,445) translate(34.90123456790124 17.97222222222222)"/><use xlink:href="#D" transform="matrix(1,0,0,1,475,445) translate(74.9506172839506 17.97222222222222)"/><path d="M829.26 49H296a6 6 0 0 0-6 6v165" stroke="#5e5e5e" stroke-width="2" fill="none"/><path d="M830.26 50h-1.03v-2h1.03z" stroke="#5e5e5e" stroke-width=".05" fill="#5e5e5e"/><path d="M290 235.26L285.37 221h9.26z" stroke="#5e5e5e" stroke-width="2" fill="#5e5e5e"/><path d="M697.5 793.85H420" stroke="#5e5e5e" stroke-width="2" fill="none"/><path d="M698.5 794.85h-1.03v-2h1.03z" stroke="#5e5e5e" stroke-width=".05" fill="#5e5e5e"/><path d="M404.74 793.85L419 789.2v9.28z" stroke="#5e5e5e" stroke-width="2" fill="#5e5e5e"/><path d="M430 726a6 6 0 0 1 6-6h228a6 6 0 0 1 6 6v68a6 6 0 0 1-6 6H436a6 6 0 0 1-6-6z" stroke="#000" stroke-opacity="0" stroke-width="3" fill="#fff" fill-opacity="0"/><use xlink:href="#E" transform="matrix(1,0,0,1,435,725) translate(17.987654320987673 16.40972222222222)"/><use xlink:href="#F" transform="matrix(1,0,0,1,435,725) translate(70.92592592592592 16.40972222222222)"/><use xlink:href="#E" transform="matrix(1,0,0,1,435,725) translate(49.56790123456791 37.74305555555556)"/><use xlink:href="#G" transform="matrix(1,0,0,1,435,725) translate(102.50617283950618 37.74305555555556)"/><use xlink:href="#E" transform="matrix(1,0,0,1,435,725) translate(11.592592592592624 59.076388888888886)"/><use xlink:href="#H" transform="matrix(1,0,0,1,435,725) translate(64.53086419753089 59.076388888888886)"/><path d="M697.5 635.4H420" stroke="#5e5e5e" stroke-width="2" fill="none"/><path d="M698.5 636.4h-1.03v-2h1.03z" stroke="#5e5e5e" stroke-width=".05" fill="#5e5e5e"/><path d="M404.74 635.4l14.26-4.64v9.27z" stroke="#5e5e5e" stroke-width="2" fill="#5e5e5e"/><path d="M440 546a6 6 0 0 1 6-6h228a6 6 0 0 1 6 6v77.17a6 6 0 0 1-6 6H446a6 6 0 0 1-6-6z" stroke="#000" stroke-opacity="0" stroke-width="3" fill="#fff" fill-opacity="0"/><use xlink:href="#I" transform="matrix(1,0,0,1,445,545) translate(37.74074074074075 14.222222222222221)"/><use xlink:href="#J" transform="matrix(1,0,0,1,445,545) translate(78.82716049382717 14.222222222222221)"/><use xlink:href="#I" transform="matrix(1,0,0,1,445,545) translate(48.08641975308643 35.55555555555556)"/><use xlink:href="#K" transform="matrix(1,0,0,1,445,545) translate(89.17283950617283 35.55555555555556)"/><use xlink:href="#I" transform="matrix(1,0,0,1,445,545) translate(46.60493827160495 56.888888888888886)"/><use xlink:href="#L" transform="matrix(1,0,0,1,445,545) translate(87.69135802469137 56.888888888888886)"/><use xlink:href="#M" transform="matrix(1,0,0,1,445,545) translate(8.481481481481524 78.22222222222223)"/><use xlink:href="#N" transform="matrix(1,0,0,1,445,545) translate(82.45679012345681 78.22222222222223)"/><path d="M1417.52 703.35h-2.88l-10.54-.95-8.02-1.7-5.48-1.9-3.52-1.7-2.32-1.42-1.5-1.23-1.05-1.04-.74-.94-.53-.76-.34-.75-.27-.67-.18-.66-.08-.66-.04-.66v-79.6h37.5z" stroke="#000" stroke-opacity="0" fill="#3998c5"/><path d="M1455.2 688.3v.2l-.03.65-.12.66-.2.67-.3.67-.37.75-.57.85-.8.94-1.14 1.13-1.7 1.23-2.52 1.5-3.96 1.72-5.98 1.9-8.7 1.5-11.07.67h-.6V608.7h38.08z" stroke="#000" stroke-opacity="0" fill="#59b3d8"/><path d="M1428.2 594.3l8.8 1.57 6.15 1.92 4.14 1.76 2.62 1.56 1.73 1.3 1.12 1.07.83.95.53.8.45.73.22.7.23.62.08.6.08.6v.78l-.15.6-.15.63-.23.67-.37.76-.53.78-.67.94-1.06 1.05-1.58 1.22-2.33 1.5-3.67 1.7-5.56 1.9-8.05 1.7-10.3.94-2.86.03-10.67-.64-8.8-1.56-6.17-1.92-4.14-1.77-2.64-1.55-1.73-1.3-1.12-1.07-.82-.96-.53-.8-.45-.74-.22-.68-.23-.63-.08-.6-.07-.6v-.8l.15-.6.15-.62.23-.66.37-.76.53-.78.67-.93 1.06-1.05 1.58-1.23 2.33-1.47 3.68-1.74 5.56-1.9 8.06-1.7 10.3-.93 2.86-.02z" stroke="#000" stroke-opacity="0" fill="#fff"/><path d="M1430.02 598.76l8.03 1.8 4.25 1.62 2.22 1.25 1.26.95.72.75.42.62.3.54.18.46.12.44.06.42v.6l-.12.44-.12.46-.3.5-.36.6-.6.7-1.02.88-1.8 1.14-3.3 1.5-6.4 1.77-11.04 1.4-4.8.12-12.52-.9-8.03-1.78-4.26-1.63-2.2-1.24-1.26-.95-.72-.74-.42-.62-.3-.54-.18-.45-.12-.46-.06-.43v-.62l.12-.44.12-.45.3-.52.36-.6.6-.7 1.02-.87 1.8-1.13 3.3-1.5 6.4-1.77 11.03-1.4 4.8-.1z" stroke="#000" stroke-opacity="0" fill="#7fb900"/><path d="M1441.17 613.75l2.8-1.44 1.98-1.55 1.2-1.64.23-1.3v-.43l-.12-.45-.12-.46-.3-.5-.35-.6-.6-.7-1.03-.87-1.8-1.15-3.33-1.48-6.4-1.8-11-1.38-4.83-.13-12.47.9-7.95 1.78-4.18 1.62-2.2 1.26-1.27.95-.7.75-.43.62-.3.54-.18.46-.12.45-.06.44v.15l.48 1.74 1.43 1.67 2.15 1.53 2.15 1.02 5.98-1.95 13.38-1.7 4.3-.1 12.68.92 11 2.83z" stroke="#000" stroke-opacity="0" fill="#b7d332"/><path d="M1431.05 635.18l3.16 1.07 2.62 1.75 2.2 2.45.1.1.22.48.23.75.24 1.27-.04 2.6-.84 5.33-2.6 8.2-3.97 7.8.14.27.74.64 1.9.36 3.6-.42 1.16.8-2.8 2.23-1.58.58-1.63.32-1.73.06-.52-.06-.65-.16-1.2.92-.38 3.3-.33 1.1-.06 1.02-.27 1.38-.3 2.08-.08.9-.57 1.92-1.02 1.64-.55.54-1.6 1.06-1.8.53-.6.1-2.7-.48-1.3-1.7-.62-1.76-.14-.74-.24-1.8-.1-1.82.1-1.8.05-1.02-.1-1.86-.3-1.8-.62-1.76.1-.43-1.5 1.65-1.8 1-.8.23-1.68.1-1.63-.3-1.63-1.07 1.72-1.33 1.77-.48 1.35-.9 1.26-1.7-.1-.6.05-.58-.15.1-.46.06-1.74-.3-1.58-.8-.7.84-1.68 2.02-2.1 2.7-.27.33-.65.63-.52.37-.46.16-.42.05h-.38l-.46-.15-.47-.26-.7-.54-.93-1.17-1.63-3.1-3.2-10.53-1.6-9.1.15-4.25.7-2.82.93-1.9 1.12-1.4 1.35-1.1 1.82-.8 2.66-.5 4.24.28 5.3 1.6 1.22-.85 1.62-.75 1.67-.42 1.76-.06h.7l1.63.16 1.72.27.42-.16 4.56-.85z" stroke="#000" stroke-opacity="0" fill="#336790"/><path d="M1412.7 650.36l.45.1.42.2.36.37.02.37-.2.36-.3.28-.37.2-.4.05-.08-.02h-.1l-.93-.57-.34-.8.03-.1.04-.1.13-.14.62-.23zM1430.05 649.98l.32.16.15.25-.1.38-.22.32-.4.33-.45.18-.16.02-.37-.05-.33-.17-.27-.26-.2-.37.33-.52.83-.3.42-.02z" stroke="#000" stroke-opacity="0" fill="#fff"/><path d="M1428.87 634.24l.9.06 1.73.27 1.63.5 1.58.7 1.58 1.04 1.68 1.43 1.43 1.75.18.33.43 1.1.3 2.5-.86 6.95-.9 3.4-5.6 12.66.14.18.8.32 1.73.22 2.98-.43 1.05-.12.9.7-.9 1.97-2.3 1.6-1.38.53-1.63.33-1.72.12-1.1-.05-1.1-.33-1.2 10.2-.14.94-.57 1.92-1.1 1.63-.58.55-1.63 1.04-1.83.44-.8.16-.87.05-1.63-.32-1.48-.88-1.16-1.36-.7-1.63-.78-12.24-1.53 1.26-1.77.75-.57.1-1.7.12-1.6-.38-1.4-.67-.72-1.25.77-1.1 1.48-.54 2.2-.7 1-1.1.3-.4.28-.37v-.32l-1.62-.27-1.53-.66-.76.9-1.5 1.85-1.9 2.45-.72.88-.9.6-1.02.22-1.05-.1-.32-.18-.63-.38-.76-.7-1.06-1.48-1.77-3.66-3.1-10.88-1.35-7.97.2-4.6.9-3.27 1.2-2.13 1.53-1.53 2.48-1.3 3.2-.72 3.26.22 1.1.22 1.66.38 1.63.5 1.6.6 1.26-.83 1.62-.72 1.72-.38 1.73-.05h.47l1.63.16 1.72.34.14-.06.42-.16 1.63-.44 1.68-.27 1.62-.16zm-13.15 1.92l-1.62.5-1.68.92-1.48 1.3-1.3 2.03-1.7 4.22-.68 4.58.8-.5 1.68-.7 1.73-.43.7-.1.78.1.72.2.67.4.57.54.44.6.38.78.2.76.47 3.23-.1 4.53-1.15 4-.24.6-.23.6-.1.32-.43 1.2-.28 1.3.43-.15h.42l.48.05.47.22.43.33.4.44.27.5.24.54.06.28.05.27.06.15v.1l.57 14.33.3.93.47.82.57.66.72.55.8.38.8.23.92-.06.8-.22h.2l1.78-.5 1.48-1.2.14-.15 1-1.7.4-1.96 1.28-11.3v-.28l.76-2.74 1.44-.76h.1l-.25-.44-.28-.38-.9-1.37-.68-1.47-.25-.55-.38-.7-1.68-3.5-1.54-4.8-.1-2.1.2-1.2.43-.8.37-.56 1.3-.83 1.76-.38 2.25.05-.57-1.53-.85-1.92-1.1-1.74-1.25-1.64-1.3-1.3-1.6-1.32-1.83-1.04-.67-.33-1.63-.55-1.67-.32-1.67-.1h-.43zm-1.34 32l-.28.17-.34.33h.05l-.47.6-.33.44-.34.5-1.2 1.03-2.34.7-.67.17-.67.4.63.37.68.27.43.16 1.68.17 1.63-.33 1.73-.93 1.34-1.46.14-.66-.04-.7-.33-.6-.48-.45-.1-.05-.33-.1zm-12.3-32l-1.7.27-1.68.55-1.53.92-1.1 1.04-1.1 1.75-.86 2.72-.28 4.97 2.58 12.9 2.5 7.1 1.7 3 .87.87.58.27 1.24-.05 1.23-1.16 1.5-1.97 1.56-1.9 1.05-1.27-.34-.33-.32-.32-1.06-1.48-.7-1.8-.3-1.8.05-1.86.05-.2.14-1.8.05-1.87v-1.8l-.1-1.86v-.16l.73-5.95 1.53-4.26 1.82-2.7.14-.15.2-.16-.92-.34-1.62-.5-1.68-.32-1.67-.27-1.68-.1zm30 31.8l-.2.05-1 .6-.33 2.08.1.06 1.28.27 1.68.07 1.68-.28 1.58-.55 1.38-.82 1.15-1.15h-.3l-.28.05-1.3.4-1.67.15-1.67-.22-1.63-.54-.14-.1-.13-.12zm-21.7-18.42l-1.64.66-1.53.98v.33l.1 1.87v1.8l-.1 1.8-.13 1.8-.05 1.6.3 1.57.56 1.48.86 1.3.86.83 1 .6 1.06.38 1.14.1.34-1.25.38-1.2.15-.33.2-.6.27-.65.72-1.97.53-3.17-.6-5.84-.18-.82-.48-.7-.62-.56-.7-.27h-.68zM1423.4 636l1.34.7 1.77 1.2 1.58 1.43 1.5 1.58.04.12 1.14 1.7 1 1.74.77 1.86.63 1.96v.22l-.05.22v1.53l-.2 1.53-.2 1.26-.08 1.25.05 1.4.14 1.43.14.66.15 1.85-.15 1.86-.43 1.8-.66 1.76.13.2.2.23.13.2 5.7-13.92 1.14-5.63.05-3.33-.34-1.37-.37-.7-.76-1-2.6-2.28-3.1-1.48-3.72-.66zm5.2 13.16l-.8.44-.62.6-.1.16-.24.66-.14.98.24 2.08 2.96 7.26.43.82.24.55.23.66.34.6.38-1.14.38-1.8.05-1.86-.2-1.86-.13-1.48-.05-1.53.1-1.37.14-1.3.14-1.27.1-1.26-.87-.1-.85-.06h-.9z" stroke="#000" stroke-opacity="0" fill="#fff"/><path d="M1470.64 661.84l-.3 6.62 2.4 2.74 5.16-.4.7-.04 1.4 3.87v1.22l-4.08 4.1-.04 3.86 3.93 3.8.2.17V689l-1.48 3.86-5.9-.35-2.45 2.7.4 5.8.03.78-3.5 1.57h-1.08l-3.65-4.57-3.42-.04-3.42 4.4-.16.2h-1.04l-3.5-1.65.35-6.62-2.4-2.74-5.2.4-.67.08-1.74-4.8 4.42-4.42v-3.83l-3.92-3.83-.5-.52 1.78-4.74 5.9.4 2.46-2.75-.36-5.8-.03-.73 4.28-1.96 3.92 4.96h3.46l3.38-4.4.46-.56zm-11.1 9.44l-2.34.7-2.14 1.35-1.74 1.9-1.25 2.45-.66 2.57-.03 2.78.62 2.74 1.24 2.4 1.74 1.95 2.1 1.4.12.04 2.33.7h2.4l2.38-.7 2.14-1.35 1.75-1.9 1.23-2.44.66-2.52.03-2.8-.66-2.73-1.2-2.43-1.75-1.95-2.1-1.4-.15-.04-2.33-.7z" stroke="#000" stroke-opacity="0" fill="#a0a1a2"/><use xlink:href="#O" transform="matrix(1,0,0,1,1350,712.3471869925494) translate(31.025 14.4)"/><path d="M1162.5 648.43h199.03" stroke="#5e5e5e" stroke-width="2" fill="none"/><path d="M1162.53 649.43h-1.03v-2h1.03z" stroke="#5e5e5e" stroke-width=".05" fill="#5e5e5e"/><path d="M1376.8 648.44l-14.27 4.63v-9.27z" stroke="#5e5e5e" stroke-width="2" fill="#5e5e5e"/><path d="M741.33 842.5V914a6 6 0 0 1-6 6H596a6 6 0 0 0-6 6v54" stroke="#5e5e5e" stroke-width="2" fill="none"/><path d="M742.33 842.53h-2v-1.03h2z" stroke="#5e5e5e" stroke-width=".05" fill="#5e5e5e"/><path d="M590 995.26L585.37 981h9.26z" stroke="#5e5e5e" stroke-width="2" fill="#5e5e5e"/><path d="M930 842.5V980" stroke="#5e5e5e" stroke-width="2" fill="none"/><path d="M931 842.53h-2v-1.03h2z" stroke="#5e5e5e" stroke-width=".05" fill="#5e5e5e"/><path d="M930 995.26L925.37 981h9.26z" stroke="#5e5e5e" stroke-width="2" fill="#5e5e5e"/><path d="M360 946a6 6 0 0 1 6-6h228a6 6 0 0 1 6 6v48a6 6 0 0 1-6 6H366a6 6 0 0 1-6-6z" stroke="#000" stroke-opacity="0" stroke-width="3" fill="#fff" fill-opacity="0"/><use xlink:href="#P" transform="matrix(1,0,0,1,365,945) translate(30.555555555555543 30.27777777777778)"/><use xlink:href="#Q" transform="matrix(1,0,0,1,365,945) translate(118.0864197530864 30.27777777777778)"/><path d="M1085.33 842.5V914a6 6 0 0 0 6 6H1204a6 6 0 0 1 6 6v54" stroke="#5e5e5e" stroke-width="2" fill="none"/><path d="M1086.33 842.53h-2v-1.03h2z" stroke="#5e5e5e" stroke-width=".05" fill="#5e5e5e"/><path d="M1210 995.26l-4.63-14.26h9.27z" stroke="#5e5e5e" stroke-width="2" fill="#5e5e5e"/><path d="M1162.5 797.33H1474a6 6 0 0 1 6 6V980" stroke="#5e5e5e" stroke-width="2" fill="none"/><path d="M1162.53 798.33h-1.03v-2h1.03z" stroke="#5e5e5e" stroke-width=".05" fill="#5e5e5e"/><path d="M1480 995.26l-4.63-14.26h9.27z" stroke="#5e5e5e" stroke-width="2" fill="#5e5e5e"/><path d="M1677.52 1080h-2.88l-10.54-.86-8.02-1.56-5.48-1.72-3.52-1.56-2.32-1.3-1.5-1.1-1.05-.96-.74-.87-.53-.7-.34-.68-.27-.6-.18-.62-.08-.6-.04-.6v-72.6h37.5z" stroke="#000" stroke-opacity="0" fill="#3998c5"/><path d="M1715.2 1066.28v.17l-.03.6-.12.6-.2.6-.3.62-.37.7-.57.76-.8.87-1.14 1.03-1.7 1.12-2.52 1.38-3.96 1.56-5.98 1.72-8.7 1.38-11.07.6h-.6v-86.32h38.08z" stroke="#000" stroke-opacity="0" fill="#59b3d8"/><path d="M1688.2 980.58l8.8 1.42 6.15 1.75 4.14 1.6 2.62 1.44 1.73 1.16 1.12 1 .83.86.53.74.45.66.22.63.23.57.08.55.08.55V994.23l-.15.55-.15.57-.23.6-.37.7-.53.7-.67.85-1.06.95-1.58 1.13-2.33 1.36-3.67 1.56-5.56 1.73-8.05 1.56-10.3.84-2.86.02-10.67-.57-8.8-1.43-6.17-1.75-4.14-1.62-2.64-1.42-1.73-1.18-1.12-.98-.82-.88-.53-.74-.45-.66-.22-.63-.23-.56-.08-.55-.07-.55V993.13l.15-.54.15-.6.23-.6.37-.67.53-.72.67-.83 1.06-.96 1.58-1.1 2.33-1.35 3.68-1.6 5.56-1.72 8.06-1.55 10.3-.85 2.86-.03z" stroke="#000" stroke-opacity="0" fill="#fff"/><path d="M1690.02 984.63l8.03 1.63 4.25 1.5 2.22 1.13 1.26.86.72.68.42.56.3.5.18.43.12.4.06.38V993.28l-.12.4-.12.4-.3.48-.36.55-.6.63-1.02.8-1.8 1.03-3.3 1.36-6.4 1.63-11.04 1.27-4.8.1-12.52-.8-8.03-1.64-4.26-1.5-2.2-1.13-1.26-.87-.72-.68-.42-.56-.3-.5-.18-.4-.12-.43-.06-.37v-.56l.12-.4.12-.4.3-.48.36-.56.6-.63 1.02-.8 1.8-1.02 3.3-1.36 6.4-1.63 11.03-1.28 4.8-.1z" stroke="#000" stroke-opacity="0" fill="#7fb900"/><path d="M1701.17 998.3l2.8-1.32 1.98-1.4 1.2-1.5.23-1.2v-.4l-.12-.4-.12-.43-.3-.46-.35-.55-.6-.63-1.03-.8-1.8-1.04-3.33-1.35-6.4-1.64-11-1.27-4.83-.1-12.47.8-7.95 1.63-4.18 1.48-2.2 1.15-1.27.86-.7.68-.43.56-.3.5-.18.43-.12.4-.06.4v.14l.48 1.6 1.43 1.5 2.15 1.4 2.15.93 5.98-1.78 13.38-1.55 4.3-.1 12.68.85 11 2.58z" stroke="#000" stroke-opacity="0" fill="#b7d332"/><path d="M1691.05 1017.85l3.16.96 2.62 1.62 2.2 2.23.1.1.22.43.23.68.24 1.16-.04 2.38-.84 4.85-2.6 7.46-3.97 7.14.14.25.74.57 1.9.34 3.6-.38 1.16.73-2.8 2.03-1.58.54-1.63.3-1.73.04-.52-.05-.65-.14-1.2.83-.38 3-.33 1-.06.93-.27 1.26-.3 1.88-.08.83-.57 1.76-1.02 1.5-.55.48-1.6.97-1.8.5-.6.1-2.7-.44-1.3-1.55-.62-1.6-.14-.67-.24-1.65-.1-1.65.1-1.65.05-.92-.1-1.7-.3-1.65-.62-1.6.1-.37-1.5 1.5-1.8.92-.8.2-1.68.1-1.63-.3-1.63-.97 1.72-1.2 1.77-.45 1.35-.82 1.26-1.54-.1-.54.05-.53-.15.1-.46.03-1.74-.3-1.58-.7-.7.76-1.68 1.83-2.1 2.48-.27.3-.65.58-.52.34-.46.15-.42.04h-.38l-.46-.13-.47-.24-.7-.5-.93-1.06-1.63-2.8-3.2-9.6-1.6-8.3.15-3.88.7-2.58.93-1.75 1.12-1.26 1.35-1 1.82-.73 2.66-.44 4.24.24 5.3 1.46 1.22-.78 1.62-.68 1.67-.4 1.76-.03h.7l1.63.14 1.72.24.42-.14 4.56-.78z" stroke="#000" stroke-opacity="0" fill="#336790"/><path d="M1672.7 1031.68l.45.1.42.17.36.34.02.33-.2.33-.3.26-.37.16-.4.06h-.18l-.93-.53-.34-.73.03-.1.04-.07.13-.14.62-.2zM1690.05 1031.34l.32.14.15.23-.1.36-.22.3-.4.3-.45.16h-.16l-.37-.04-.33-.15-.27-.23-.2-.35.33-.47.83-.26.42-.03z" stroke="#000" stroke-opacity="0" fill="#fff"/><path d="M1688.87 1017l.9.04 1.73.25 1.63.44 1.58.64 1.58.95 1.68 1.3 1.43 1.6.18.3.43.98.3 2.3-.86 6.33-.9 3.1-5.6 11.55.14.15.8.3 1.73.2 2.98-.4 1.05-.1.9.64-.9 1.8-2.3 1.44-1.38.5-1.63.3-1.72.1-1.1-.04-1.1-.3-1.2 9.32-.14.84-.57 1.75-1.1 1.5-.58.5-1.63.94-1.83.4-.8.15-.87.05-1.63-.3-1.48-.8-1.16-1.24-.7-1.5-.78-11.15-1.53 1.15-1.77.7-.57.1-1.7.1-1.6-.35-1.4-.6-.72-1.14.77-1 1.48-.5 2.2-.64 1-1 .3-.35.28-.35v-.3l-1.62-.24-1.53-.6-.76.8-1.5 1.7-1.9 2.23-.72.8-.9.56-1.02.2-1.05-.1-.32-.15-.63-.34-.76-.65-1.06-1.34-1.77-3.33-3.1-9.92-1.35-7.26.2-4.18.9-3 1.2-1.94 1.53-1.4 2.48-1.2 3.2-.63 3.26.18 1.1.2 1.66.35 1.63.45 1.6.55 1.26-.75 1.62-.65 1.72-.34 1.73-.06h.47l1.63.14 1.72.3.14-.05.42-.14 1.63-.4 1.68-.26 1.62-.15zm-13.15 1.73l-1.62.45-1.68.85-1.48 1.2-1.3 1.84-1.7 3.83-.68 4.2.8-.46 1.68-.65 1.73-.4.7-.1.78.1.72.2.67.34.57.5.44.54.38.7.2.7.47 2.94-.1 4.13-1.15 3.64-.24.54-.23.55-.1.28-.43 1.1-.28 1.2.43-.15h.42l.48.05.47.2.43.3.4.4.27.44.24.5.06.25.05.25.06.15v.1l.57 13.05.3.85.47.74.57.6.72.5.8.36.8.2.92-.05.8-.2h.2l1.78-.44 1.48-1.1.14-.15 1-1.53.4-1.8 1.28-10.3v-.25l.76-2.5 1.44-.7h.1l-.25-.4-.28-.34-.9-1.25-.68-1.34-.25-.5-.38-.66-1.68-3.18-1.54-4.4-.1-1.88.2-1.1.43-.74.37-.5 1.3-.75 1.76-.36 2.25.05-.57-1.4-.85-1.75-1.1-1.6-1.25-1.5-1.3-1.18-1.6-1.2-1.83-.94-.67-.3-1.63-.5-1.67-.3-1.67-.1h-.43zm-1.34 29.2l-.28.14-.34.3h.05l-.47.55-.33.4-.34.45-1.2.94-2.34.66-.67.15-.67.36.63.35.68.26.43.15 1.68.16 1.63-.3 1.73-.85 1.34-1.33.14-.6-.04-.65-.33-.55-.48-.4-.1-.05-.33-.1zm-12.3-29.2l-1.7.25-1.68.5-1.53.85-1.1.94-1.1 1.6-.86 2.5-.28 4.52 2.58 11.75 2.5 6.47 1.7 2.74.87.8.58.25 1.24-.04 1.23-1.05 1.5-1.78 1.56-1.74 1.05-1.15-.34-.3-.32-.3-1.06-1.34-.7-1.66-.3-1.64.05-1.7.05-.2.14-1.64.05-1.7v-1.63l-.1-1.7v-.15l.73-5.43 1.53-3.88 1.82-2.45.14-.14.2-.15-.92-.3-1.62-.45-1.68-.3-1.67-.25-1.68-.1zm30 29l-.2.04-1 .55-.33 1.9.1.05 1.28.24 1.68.06 1.68-.25 1.58-.48 1.38-.75 1.15-1.05h-.3l-.28.05-1.3.35-1.67.15-1.67-.2-1.63-.5-.14-.1-.13-.1zm-21.7-16.8l-1.64.6-1.53.9v.3l.1 1.7v1.64l-.1 1.64-.13 1.65-.05 1.45.3 1.44.56 1.35.86 1.2.86.73 1 .55 1.06.35 1.14.1.34-1.15.38-1.1.15-.3.2-.54.27-.6.72-1.8.53-2.88-.6-5.33-.18-.75-.48-.65-.62-.5-.7-.24h-.68zm13.04-12.35l1.34.65 1.77 1.1 1.58 1.3 1.5 1.44.04.1 1.14 1.54 1 1.6.77 1.7.63 1.8v.2l-.05.2v1.38l-.2 1.4-.2 1.14-.08 1.15.05 1.3.14 1.3.14.6.15 1.68-.15 1.7-.43 1.64-.66 1.58.13.2.2.2.13.2 5.7-12.7 1.14-5.13.05-3.04-.34-1.24-.37-.64-.76-.9-2.6-2.1-3.1-1.34-3.72-.6zm5.2 12l-.8.4-.62.55-.1.15-.24.6-.14.9.24 1.9 2.96 6.62.43.74.24.5.23.6.34.55.38-1.06.38-1.64.05-1.7-.2-1.7-.13-1.34-.05-1.4.1-1.23.14-1.2.14-1.15.1-1.14-.87-.1-.85-.05h-.9z" stroke="#000" stroke-opacity="0" fill="#fff"/><path d="M1730.64 1042.15l-.3 6.03 2.4 2.5 5.16-.35.7-.04 1.4 3.52v1.1l-4.08 3.74-.04 3.53 3.93 3.44.2.16v1.1l-1.48 3.54-5.9-.32-2.45 2.46.4 5.28.03.7-3.5 1.44h-1.08l-3.65-4.16-3.42-.04-3.42 4-.16.2h-1.04l-3.5-1.5.35-6.04-2.4-2.5-5.2.36-.67.08-1.74-4.36 4.42-4.05v-3.5l-3.92-3.5-.5-.47 1.78-4.32 5.9.37 2.46-2.5-.36-5.28-.03-.68 4.28-1.8 3.92 4.53h3.46l3.38-4 .46-.52zm-11.1 8.6l-2.34.65-2.14 1.23-1.74 1.74-1.25 2.23-.66 2.34-.03 2.53.62 2.5 1.24 2.18 1.74 1.8 2.1 1.26.12.05 2.33.63h2.4l2.38-.63 2.14-1.23 1.75-1.75 1.23-2.22.66-2.3.03-2.54-.66-2.5-1.2-2.2-1.75-1.8-2.1-1.26-.15-.04-2.33-.64z" stroke="#000" stroke-opacity="0" fill="#a0a1a2"/><use xlink:href="#R" transform="matrix(1,0,0,1,1610,1089) translate(35.575 14.4)"/><use xlink:href="#S" transform="matrix(1,0,0,1,1610,1089) translate(81.575 14.4)"/><path d="M1162.5 737.33H1684a6 6 0 0 1 6 6v219.03" stroke="#5e5e5e" stroke-width="2" fill="none"/><path d="M1162.53 738.33h-1.03v-2h1.03z" stroke="#5e5e5e" stroke-width=".05" fill="#5e5e5e"/><path d="M1690 977.63l-4.63-14.26h9.27z" stroke="#5e5e5e" stroke-width="2" fill="#5e5e5e"/><path d="M1157.5 300H980" stroke="#5e5e5e" stroke-width="2" fill="none"/><path d="M1158.5 301h-1.03v-2h1.03z" stroke="#5e5e5e" stroke-width=".05" fill="#5e5e5e"/><path d="M964.74 300l14.26-4.63v9.26z" stroke="#5e5e5e" stroke-width="2" fill="#5e5e5e"/><path d="M990 306a6 6 0 0 1 6-6h128a6 6 0 0 1 6 6v8a6 6 0 0 1-6 6H996a6 6 0 0 1-6-6z" stroke="#000" stroke-opacity="0" stroke-width="3" fill="#fff" fill-opacity="0"/><use xlink:href="#T" transform="matrix(1,0,0,1,995,305) translate(22.37654320987655 12.444444444444443)"/><path d="M860 346a6 6 0 0 1 6-6h108a6 6 0 0 1 6 6v48a6 6 0 0 1-6 6H866a6 6 0 0 1-6-6z" stroke="#000" stroke-opacity="0" stroke-width="3" fill="#fff" fill-opacity="0"/><use xlink:href="#U" transform="matrix(1,0,0,1,865,345) translate(11.487654320987666 18.694444444444443)"/><use xlink:href="#T" transform="matrix(1,0,0,1,865,345) translate(11.876543209876552 37.36111111111111)"/><path d="M650 1126a6 6 0 0 1 6-6h148a6 6 0 0 1 6 6v68a6 6 0 0 1-6 6H656a6 6 0 0 1-6-6z" stroke="#5e5e5e" stroke-width="3" fill="#fff"/><use xlink:href="#V" transform="matrix(1,0,0,1,655,1125) translate(26.388888888888886 39.65277777777778)"/><use xlink:href="#p" transform="matrix(1,0,0,1,655,1125) translate(87.80864197530863 39.65277777777778)"/><path d="M825.33 842.5V974a6 6 0 0 1-6 6H736a6 6 0 0 0-6 6v114" stroke="#5e5e5e" stroke-width="2" fill="none"/><path d="M826.33 842.53h-2v-1.03h2z" stroke="#5e5e5e" stroke-width=".05" fill="#5e5e5e"/><path d="M730 1115.26l-4.63-14.26h9.26z" stroke="#5e5e5e" stroke-width="2" fill="#5e5e5e"/><path d="M950 1126a6 6 0 0 1 6-6h198a6 6 0 0 1 6 6v68a6 6 0 0 1-6 6H956a6 6 0 0 1-6-6z" stroke="#5e5e5e" stroke-width="3" fill="#fff"/><use xlink:href="#W" transform="matrix(1,0,0,1,955,1125) translate(37.68518518518518 39.65277777777778)"/><use xlink:href="#p" transform="matrix(1,0,0,1,955,1125) translate(126.51234567901236 39.65277777777778)"/><path d="M1018.67 842.5V974a6 6 0 0 0 6 6H1049a6 6 0 0 1 6 6v114" stroke="#5e5e5e" stroke-width="2" fill="none"/><path d="M1019.67 842.53h-2v-1.03h2z" stroke="#5e5e5e" stroke-width=".05" fill="#5e5e5e"/><path d="M1055 1115.26l-4.63-14.26h9.27z" stroke="#5e5e5e" stroke-width="2" fill="#5e5e5e"/><path d="M1240 1126a6 6 0 0 1 6-6h248a6 6 0 0 1 6 6v68a6 6 0 0 1-6 6h-248a6 6 0 0 1-6-6z" stroke="#5e5e5e" stroke-width="3" fill="#fff"/><use xlink:href="#X" transform="matrix(1,0,0,1,1245,1125) translate(45.49382716049382 39.65277777777778)"/><use xlink:href="#p" transform="matrix(1,0,0,1,1245,1125) translate(168.7037037037037 39.65277777777778)"/><path d="M1161.47 837.76H1364a6 6 0 0 1 6 6V1100" stroke="#5e5e5e" stroke-width="2" fill="none"/><path d="M1161.5 838.76h-1.73l.3-.35.62-1 .25-.64h.55z" stroke="#5e5e5e" stroke-width=".05" fill="#5e5e5e"/><path d="M1370 1115.26l-4.63-14.26h9.27z" stroke="#5e5e5e" stroke-width="2" fill="#5e5e5e"/><path d="M480 645.13a6 6 0 0 1 6-6h128a6 6 0 0 1 6 6v6.77a6 6 0 0 1-6 6H486a6 6 0 0 1-6-6z" stroke="#000" stroke-opacity="0" stroke-width="3" fill="#fff" fill-opacity="0"/><use xlink:href="#T" transform="matrix(1,0,0,1,485,644.1247776169877) translate(21.87654320987655 12.444444444444443)"/><path d="M1000 440h160v60h-160z" stroke="#5e5e5e" stroke-width="3" fill="#fff"/><use xlink:href="#Y" transform="matrix(1,0,0,1,1005,445) translate(11.750000000000007 28.5)"/><use xlink:href="#Z" transform="matrix(1,0,0,1,1005,445) translate(106.02777777777777 28.5)"/><path d="M1726.77 492.1h-53.54c-2.95 0-5.33-2.38-5.33-5.33v-53.52c0-2.96 2.38-5.33 5.33-5.33h53.54c2.95 0 5.33 2.37 5.33 5.32v53.53c0 2.95-2.38 5.33-5.33 5.33zm-53.54-60.78c-1.03 0-1.93.9-1.93 1.93v53.52c0 1.03.9 1.93 1.93 1.93h53.54c1.03 0 1.93-.9 1.93-1.93v-53.52c0-1.03-.9-1.93-1.93-1.93z" stroke="#fff" stroke-opacity="0" fill="#3f8624"/><path d="M1679.1 420h3.4v9.6h-3.4V420zM1688.7 420h3.42v9.6h-3.42V420zM1698.3 420h3.4v9.6h-3.4V420zM1707.9 420h3.4v9.6h-3.4V420zM1717.5 420h3.4v9.6h-3.4V420zM1679.1 490.4h3.4v9.6h-3.4v-9.6zM1688.7 490.4h3.42v9.6h-3.42v-9.6zM1698.3 490.4h3.4v9.6h-3.4v-9.6zM1707.9 490.4h3.4v9.6h-3.4v-9.6zM1717.5 490.4h3.4v9.6h-3.4v-9.6zM1660 439.1h9.6v3.4h-9.6v-3.4zM1660 448.7h9.6v3.42h-9.6v-3.42zM1660 458.3h9.6v3.4h-9.6v-3.4zM1660 467.9h9.6v3.4h-9.6v-3.4zM1660 477.5h9.6v3.4h-9.6v-3.4zM1730.4 439.1h9.6v3.4h-9.6v-3.4zM1730.4 448.7h9.6v3.42h-9.6v-3.42zM1730.4 458.3h9.6v3.4h-9.6v-3.4zM1730.4 467.9h9.6v3.4h-9.6v-3.4zM1730.4 477.5h9.6v3.4h-9.6v-3.4zM1720.67 482.5h-41.34c-.97 0-1.74-.76-1.74-1.7v-4.64c0-.9.76-1.67 1.73-1.67h1.4V453.7h-3.14c-.92 0-1.7-.77-1.7-1.7v-5.15c0-.72.44-1.35 1.16-1.62l22.36-7.7c.4-.14.77-.14 1.16 0l22.36 7.7c.72.27 1.16.9 1.16 1.62V452c0 .95-.77 1.72-1.7 1.72h-3.12v20.77h1.4c.96 0 1.73.75 1.73 1.66v4.64c0 .94-.76 1.7-1.73 1.7zM1681 479.1h38v-1.2h-1.4c-.93 0-1.7-.78-1.7-1.72V452c0-.94.77-1.7 1.7-1.7h3.07v-2.26L1700 441l-20.67 7.04v2.16h3.08c.93 0 1.7.77 1.7 1.72v24.24c0 .94-.77 1.7-1.7 1.7h-1.4z" stroke="#fff" stroke-opacity="0" fill="#3f8624"/><path d="M1698.94 474.85v-3.3c-1.93-.13-3.56-.65-5.2-1.7v-3.03c1.3.6 2.33 1.04 3.1 1.3.7.23 1.35.38 2.1.43v-5.13l-1.1-.42c-1.3-.4-2.34-1.06-3.32-2.04-.7-.82-1.05-1.8-1.03-2.9-.06-1.5.45-2.8 1.5-3.83 1.1-1.1 2.4-1.66 3.94-1.7v-3.42h2.02v3.32c1.5.18 2.77.6 4.1 1.34v3.05c-1.35-.74-2.6-1.16-4.1-1.4v5.2l.94.36c1.4.44 2.48 1.06 3.55 2.07.73.83 1.08 1.8 1.05 2.92.04 1.47-.48 2.73-1.52 3.77-1.14 1.08-2.44 1.67-4.02 1.8v3.4zm-2.05-17.06c-.02.5.13.94.47 1.33.46.47.95.77 1.58.98v-4.7c-.62.04-1.1.3-1.52.74-.37.46-.55.98-.54 1.6zm6.14 8.53c.02-.5-.14-.95-.48-1.34-.48-.47-.97-.76-1.6-.96v4.5c.6-.1 1.1-.35 1.48-.8.4-.45.6-.94.6-1.54z" stroke="#fff" stroke-opacity="0" fill="#3f8624"/><g><use xlink:href="#aa" transform="matrix(1,0,0,1,1630,509) translate(46.13888888888889 15.999999999999998)"/></g><path d="M1659 460h-479" stroke="#5e5e5e" stroke-width="2" fill="none"/><path d="M1660 461h-1.03v-2h1.03z" stroke="#5e5e5e" stroke-width=".05" fill="#5e5e5e"/><path d="M1164.74 460l14.26-4.63v9.26z" stroke="#5e5e5e" stroke-width="2" fill="#5e5e5e"/><path d="M1260 426a6 6 0 0 1 6-6h348a6 6 0 0 1 6 6v30.7a6 6 0 0 1-6 6h-348a6 6 0 0 1-6-6z" stroke="#000" stroke-opacity="0" stroke-width="3" fill="#fff" fill-opacity="0"/><g><use xlink:href="#C" transform="matrix(1,0,0,1,1265,425) translate(15.86419753086426 20.40972222222222)"/><use xlink:href="#ab" transform="matrix(1,0,0,1,1265,425) translate(55.91358024691363 20.40972222222222)"/></g><path d="M490 486a6 6 0 0 1 6-6h108a6 6 0 0 1 6 6v22.58a6 6 0 0 1-6 6H496a6 6 0 0 1-6-6z" stroke="#000" stroke-opacity="0" stroke-width="3" fill="#fff" fill-opacity="0"/><g><use xlink:href="#ac" transform="matrix(1,0,0,1,495,485) translate(16.62962962962964 15.569444444444443)"/></g><path d="M1505.33 997.5V782.92a6 6 0 0 0-6-6H1180" stroke="#5e5e5e" stroke-width="2" fill="none"/><path d="M1506.33 998.5h-2v-1.03h2z" stroke="#5e5e5e" stroke-width=".05" fill="#5e5e5e"/><path d="M1164.74 776.92l14.26-4.63v9.26z" stroke="#5e5e5e" stroke-width="2" fill="#5e5e5e"/><path d="M1500 763a6 6 0 0 1 6-6h128a6 6 0 0 1 6 6v94a6 6 0 0 1-6 6h-128a6 6 0 0 1-6-6z" stroke="#000" stroke-opacity="0" stroke-width="3" fill="#fff" fill-opacity="0"/><g><use xlink:href="#E" transform="matrix(1,0,0,1,1505,762) translate(14.382716049382722 32.22222222222222)"/><use xlink:href="#ad" transform="matrix(1,0,0,1,1505,762) translate(67.32098765432099 32.22222222222222)"/><use xlink:href="#ae" transform="matrix(1,0,0,1,1505,762) translate(21.87654320987655 51.77777777777777)"/><use xlink:href="#af" transform="matrix(1,0,0,1,1505,762) translate(7.660493827160508 70.44444444444443)"/><use xlink:href="#ag" transform="matrix(1,0,0,1,1505,762) translate(61.111111111111114 70.44444444444443)"/></g><path d="M480 802.54a6 6 0 0 1 6-6h128a6 6 0 0 1 6 6v14.92a6 6 0 0 1-6 6H486a6 6 0 0 1-6-6z" stroke="#000" stroke-opacity="0" stroke-width="3" fill="#fff" fill-opacity="0"/><g><use xlink:href="#T" transform="matrix(1,0,0,1,485,801.5379817831022) translate(21.87654320987655 13.506944444444443)"/></g><defs><path fill="#333" d="M30-248c87 1 191-15 191 75 0 78-77 80-158 76V0H30v-248zm33 125c57 0 124 11 124-50 0-59-68-47-124-48v98" id="ah"/><path fill="#333" d="M114-163C36-179 61-72 57 0H25l-1-190h30c1 12-1 29 2 39 6-27 23-49 58-41v29" id="ai"/><path fill="#333" d="M100-194c62-1 85 37 85 99 1 63-27 99-86 99S16-35 15-95c0-66 28-99 85-99zM99-20c44 1 53-31 53-75 0-43-8-75-51-75s-53 32-53 75 10 74 51 75" id="aj"/><path fill="#333" d="M24-231v-30h32v30H24zM-9 49c24 4 33-6 33-30v-209h32V24c2 40-23 58-65 49V49" id="ak"/><path fill="#333" d="M100-194c63 0 86 42 84 106H49c0 40 14 67 53 68 26 1 43-12 49-29l28 8c-11 28-37 45-77 45C44 4 14-33 15-96c1-61 26-98 85-98zm52 81c6-60-76-77-97-28-3 7-6 17-6 28h103" id="al"/><path fill="#333" d="M96-169c-40 0-48 33-48 73s9 75 48 75c24 0 41-14 43-38l32 2c-6 37-31 61-74 61-59 0-76-41-82-99-10-93 101-131 147-64 4 7 5 14 7 22l-32 3c-4-21-16-35-41-35" id="am"/><path fill="#333" d="M59-47c-2 24 18 29 38 22v24C64 9 27 4 27-40v-127H5v-23h24l9-43h21v43h35v23H59v120" id="an"/><path fill="#333" d="M24-231v-30h32v30H24zM24 0v-190h32V0H24" id="ao"/><path fill="#333" d="M117-194c89-4 53 116 60 194h-32v-121c0-31-8-49-39-48C34-167 62-67 57 0H25l-1-190h30c1 10-1 24 2 32 11-22 29-35 61-36" id="ap"/><g id="a"><use transform="matrix(0.06172839506172839,0,0,0.06172839506172839,0,0)" xlink:href="#ah"/><use transform="matrix(0.06172839506172839,0,0,0.06172839506172839,14.814814814814813,0)" xlink:href="#ai"/><use transform="matrix(0.06172839506172839,0,0,0.06172839506172839,22.160493827160494,0)" xlink:href="#aj"/><use transform="matrix(0.06172839506172839,0,0,0.06172839506172839,34.50617283950617,0)" xlink:href="#ak"/><use transform="matrix(0.06172839506172839,0,0,0.06172839506172839,39.382716049382715,0)" xlink:href="#al"/><use transform="matrix(0.06172839506172839,0,0,0.06172839506172839,51.72839506172839,0)" xlink:href="#am"/><use transform="matrix(0.06172839506172839,0,0,0.06172839506172839,62.839506172839506,0)" xlink:href="#an"/><use transform="matrix(0.06172839506172839,0,0,0.06172839506172839,69.01234567901234,0)" xlink:href="#ao"/><use transform="matrix(0.06172839506172839,0,0,0.06172839506172839,73.88888888888889,0)" xlink:href="#aj"/><use transform="matrix(0.06172839506172839,0,0,0.06172839506172839,86.23456790123457,0)" xlink:href="#ap"/></g><path fill="#333" d="M30 0v-248h187v28H63v79h144v27H63v87h162V0H30" id="aq"/><path fill="#333" d="M177-190C167-65 218 103 67 71c-23-6-38-20-44-43l32-5c15 47 100 32 89-28v-30C133-14 115 1 83 1 29 1 15-40 15-95c0-56 16-97 71-98 29-1 48 16 59 35 1-10 0-23 2-32h30zM94-22c36 0 50-32 50-73 0-42-14-75-50-75-39 0-46 34-46 75s6 73 46 73" id="ar"/><g id="b"><use transform="matrix(0.06172839506172839,0,0,0.06172839506172839,0,0)" xlink:href="#aq"/><use transform="matrix(0.06172839506172839,0,0,0.06172839506172839,14.814814814814813,0)" xlink:href="#ap"/><use transform="matrix(0.06172839506172839,0,0,0.06172839506172839,27.160493827160494,0)" xlink:href="#ar"/><use transform="matrix(0.06172839506172839,0,0,0.06172839506172839,39.50617283950617,0)" xlink:href="#ao"/><use transform="matrix(0.06172839506172839,0,0,0.06172839506172839,44.382716049382715,0)" xlink:href="#ap"/><use transform="matrix(0.06172839506172839,0,0,0.06172839506172839,56.72839506172839,0)" xlink:href="#al"/></g><path fill="#333" d="M101-234c-31-9-42 10-38 44h38v23H63V0H32v-167H5v-23h27c-7-52 17-82 69-68v24" id="as"/><path fill="#333" d="M210-169c-67 3-38 105-44 169h-31v-121c0-29-5-50-35-48C34-165 62-65 56 0H25l-1-190h30c1 10-1 24 2 32 10-44 99-50 107 0 11-21 27-35 58-36 85-2 47 119 55 194h-31v-121c0-29-5-49-35-48" id="at"/><path fill="#333" d="M141-36C126-15 110 5 73 4 37 3 15-17 15-53c-1-64 63-63 125-63 3-35-9-54-41-54-24 1-41 7-42 31l-33-3c5-37 33-52 76-52 45 0 72 20 72 64v82c-1 20 7 32 28 27v20c-31 9-61-2-59-35zM48-53c0 20 12 33 32 33 41-3 63-29 60-74-43 2-92-5-92 41" id="au"/><g id="c"><use transform="matrix(0.06172839506172839,0,0,0.06172839506172839,0,0)" xlink:href="#ah"/><use transform="matrix(0.06172839506172839,0,0,0.06172839506172839,14.814814814814813,0)" xlink:href="#al"/><use transform="matrix(0.06172839506172839,0,0,0.06172839506172839,27.160493827160494,0)" xlink:href="#ai"/><use transform="matrix(0.06172839506172839,0,0,0.06172839506172839,34.50617283950617,0)" xlink:href="#as"/><use transform="matrix(0.06172839506172839,0,0,0.06172839506172839,40.67901234567901,0)" xlink:href="#aj"/><use transform="matrix(0.06172839506172839,0,0,0.06172839506172839,53.02469135802469,0)" xlink:href="#ai"/><use transform="matrix(0.06172839506172839,0,0,0.06172839506172839,60.37037037037037,0)" xlink:href="#at"/><use transform="matrix(0.06172839506172839,0,0,0.06172839506172839,78.82716049382715,0)" xlink:href="#au"/><use transform="matrix(0.06172839506172839,0,0,0.06172839506172839,91.17283950617283,0)" xlink:href="#ap"/><use transform="matrix(0.06172839506172839,0,0,0.06172839506172839,103.51851851851852,0)" xlink:href="#am"/><use transform="matrix(0.06172839506172839,0,0,0.06172839506172839,114.62962962962963,0)" xlink:href="#al"/></g><path fill="#333" d="M185-189c-5-48-123-54-124 2 14 75 158 14 163 119 3 78-121 87-175 55-17-10-28-26-33-46l33-7c5 56 141 63 141-1 0-78-155-14-162-118-5-82 145-84 179-34 5 7 8 16 11 25" id="av"/><path fill="#333" d="M108 0H70L1-190h34L89-25l56-165h34" id="aw"/><g id="d"><use transform="matrix(0.06172839506172839,0,0,0.06172839506172839,0,0)" xlink:href="#av"/><use transform="matrix(0.06172839506172839,0,0,0.06172839506172839,14.814814814814813,0)" xlink:href="#al"/><use transform="matrix(0.06172839506172839,0,0,0.06172839506172839,27.160493827160494,0)" xlink:href="#ai"/><use transform="matrix(0.06172839506172839,0,0,0.06172839506172839,34.50617283950617,0)" xlink:href="#aw"/><use transform="matrix(0.06172839506172839,0,0,0.06172839506172839,45.61728395061728,0)" xlink:href="#ao"/><use transform="matrix(0.06172839506172839,0,0,0.06172839506172839,50.49382716049382,0)" xlink:href="#am"/><use transform="matrix(0.06172839506172839,0,0,0.06172839506172839,61.60493827160494,0)" xlink:href="#al"/></g><path fill="#333" d="M63-220v92h138v28H63V0H30v-248h175v28H63" id="ax"/><path fill="#333" d="M85-194c31 0 48 13 60 33l-1-100h32l1 261h-30c-2-10 0-23-3-31C134-8 116 4 85 4 32 4 16-35 15-94c0-66 23-100 70-100zm9 24c-40 0-46 34-46 75 0 40 6 74 45 74 42 0 51-32 51-76 0-42-9-74-50-73" id="ay"/><g id="e"><use transform="matrix(0.06172839506172839,0,0,0.06172839506172839,0,0)" xlink:href="#ax"/><use transform="matrix(0.06172839506172839,0,0,0.06172839506172839,13.518518518518517,0)" xlink:href="#ai"/><use transform="matrix(0.06172839506172839,0,0,0.06172839506172839,20.864197530864196,0)" xlink:href="#aj"/><use transform="matrix(0.06172839506172839,0,0,0.06172839506172839,33.20987654320987,0)" xlink:href="#ap"/><use transform="matrix(0.06172839506172839,0,0,0.06172839506172839,45.55555555555555,0)" xlink:href="#an"/><use transform="matrix(0.06172839506172839,0,0,0.06172839506172839,51.72839506172839,0)" xlink:href="#al"/><use transform="matrix(0.06172839506172839,0,0,0.06172839506172839,64.07407407407408,0)" xlink:href="#ap"/><use transform="matrix(0.06172839506172839,0,0,0.06172839506172839,76.41975308641976,0)" xlink:href="#ay"/></g><path fill="#333" d="M87 75C49 33 22-17 22-94c0-76 28-126 65-167h31c-38 41-64 92-64 168S80 34 118 75H87" id="az"/><path fill="#333" d="M140-251c81 0 123 46 123 126C263-46 219 4 140 4 59 4 17-45 17-125s42-126 123-126zm0 227c63 0 89-41 89-101s-29-99-89-99c-61 0-89 39-89 99S79-25 140-24" id="aA"/><path fill="#333" d="M115-194c53 0 69 39 70 98 0 66-23 100-70 100C84 3 66-7 56-30L54 0H23l1-261h32v101c10-23 28-34 59-34zm-8 174c40 0 45-34 45-75 0-40-5-75-45-74-42 0-51 32-51 76 0 43 10 73 51 73" id="aB"/><path fill="#333" d="M33-261c38 41 65 92 65 168S71 34 33 75H2C39 34 66-17 66-93S39-220 2-261h31" id="aC"/><g id="f"><use transform="matrix(0.06172839506172839,0,0,0.06172839506172839,0,0)" xlink:href="#az"/><use transform="matrix(0.06172839506172839,0,0,0.06172839506172839,7.345679012345679,0)" xlink:href="#aA"/><use transform="matrix(0.06172839506172839,0,0,0.06172839506172839,24.629629629629626,0)" xlink:href="#ap"/><use transform="matrix(0.06172839506172839,0,0,0.06172839506172839,36.9753086419753,0)" xlink:href="#aB"/><use transform="matrix(0.06172839506172839,0,0,0.06172839506172839,49.32098765432098,0)" xlink:href="#aj"/><use transform="matrix(0.06172839506172839,0,0,0.06172839506172839,61.66666666666666,0)" xlink:href="#au"/><use transform="matrix(0.06172839506172839,0,0,0.06172839506172839,74.01234567901234,0)" xlink:href="#ai"/><use transform="matrix(0.06172839506172839,0,0,0.06172839506172839,81.35802469135803,0)" xlink:href="#ay"/><use transform="matrix(0.06172839506172839,0,0,0.06172839506172839,93.70370370370371,0)" xlink:href="#ao"/><use transform="matrix(0.06172839506172839,0,0,0.06172839506172839,98.58024691358025,0)" xlink:href="#ap"/><use transform="matrix(0.06172839506172839,0,0,0.06172839506172839,110.92592592592594,0)" xlink:href="#ar"/><use transform="matrix(0.06172839506172839,0,0,0.06172839506172839,123.27160493827162,0)" xlink:href="#aC"/></g><path fill="#333" d="M233-177c-1 41-23 64-60 70L243 0h-38l-65-103H63V0H30v-248c88 3 205-21 203 71zM63-129c60-2 137 13 137-47 0-61-80-42-137-45v92" id="aD"/><path fill="#333" d="M24 0v-261h32V0H24" id="aE"/><path fill="#333" d="M135-143c-3-34-86-38-87 0 15 53 115 12 119 90S17 21 10-45l28-5c4 36 97 45 98 0-10-56-113-15-118-90-4-57 82-63 122-42 12 7 21 19 24 35" id="aF"/><g id="g"><use transform="matrix(0.06172839506172839,0,0,0.06172839506172839,0,0)" xlink:href="#aD"/><use transform="matrix(0.06172839506172839,0,0,0.06172839506172839,15.987654320987653,0)" xlink:href="#au"/><use transform="matrix(0.06172839506172839,0,0,0.06172839506172839,28.333333333333332,0)" xlink:href="#ao"/><use transform="matrix(0.06172839506172839,0,0,0.06172839506172839,33.20987654320987,0)" xlink:href="#aE"/><use transform="matrix(0.06172839506172839,0,0,0.06172839506172839,38.08641975308642,0)" xlink:href="#aF"/></g><path fill="#333" d="M115-194c55 1 70 41 70 98S169 2 115 4C84 4 66-9 55-30l1 105H24l-1-265h31l2 30c10-21 28-34 59-34zm-8 174c40 0 45-34 45-75s-6-73-45-74c-42 0-51 32-51 76 0 43 10 73 51 73" id="aG"/><g id="h"><use transform="matrix(0.06172839506172839,0,0,0.06172839506172839,0,0)" xlink:href="#au"/><use transform="matrix(0.06172839506172839,0,0,0.06172839506172839,12.345679012345679,0)" xlink:href="#aG"/><use transform="matrix(0.06172839506172839,0,0,0.06172839506172839,24.691358024691358,0)" xlink:href="#aG"/><use transform="matrix(0.06172839506172839,0,0,0.06172839506172839,37.03703703703704,0)" xlink:href="#aE"/><use transform="matrix(0.06172839506172839,0,0,0.06172839506172839,41.91358024691358,0)" xlink:href="#ao"/><use transform="matrix(0.06172839506172839,0,0,0.06172839506172839,46.79012345679013,0)" xlink:href="#am"/><use transform="matrix(0.06172839506172839,0,0,0.06172839506172839,57.90123456790124,0)" xlink:href="#au"/><use transform="matrix(0.06172839506172839,0,0,0.06172839506172839,70.24691358024693,0)" xlink:href="#an"/><use transform="matrix(0.06172839506172839,0,0,0.06172839506172839,76.41975308641976,0)" xlink:href="#ao"/><use transform="matrix(0.06172839506172839,0,0,0.06172839506172839,81.2962962962963,0)" xlink:href="#aj"/><use transform="matrix(0.06172839506172839,0,0,0.06172839506172839,93.64197530864199,0)" xlink:href="#ap"/></g><path fill="#333" d="M160-131c35 5 61 23 61 61C221 17 115-2 30 0v-248c76 3 177-17 177 60 0 33-19 50-47 57zm-97-11c50-1 110 9 110-42 0-47-63-36-110-37v79zm0 115c55-2 124 14 124-45 0-56-70-42-124-44v89" id="aH"/><path fill="#333" d="M143 0L79-87 56-68V0H24v-261h32v163l83-92h37l-77 82L181 0h-38" id="aI"/><g id="j"><use transform="matrix(0.06172839506172839,0,0,0.06172839506172839,0,0)" xlink:href="#aH"/><use transform="matrix(0.06172839506172839,0,0,0.06172839506172839,14.814814814814813,0)" xlink:href="#au"/><use transform="matrix(0.06172839506172839,0,0,0.06172839506172839,27.160493827160494,0)" xlink:href="#am"/><use transform="matrix(0.06172839506172839,0,0,0.06172839506172839,38.27160493827161,0)" xlink:href="#aI"/><use transform="matrix(0.06172839506172839,0,0,0.06172839506172839,49.38271604938272,0)" xlink:href="#aB"/><use transform="matrix(0.06172839506172839,0,0,0.06172839506172839,61.7283950617284,0)" xlink:href="#aj"/><use transform="matrix(0.06172839506172839,0,0,0.06172839506172839,74.07407407407408,0)" xlink:href="#ap"/><use transform="matrix(0.06172839506172839,0,0,0.06172839506172839,86.41975308641976,0)" xlink:href="#al"/></g><g id="k"><use transform="matrix(0.06172839506172839,0,0,0.06172839506172839,0,0)" xlink:href="#aD"/><use transform="matrix(0.06172839506172839,0,0,0.06172839506172839,15.987654320987653,0)" xlink:href="#al"/><use transform="matrix(0.06172839506172839,0,0,0.06172839506172839,28.333333333333332,0)" xlink:href="#au"/><use transform="matrix(0.06172839506172839,0,0,0.06172839506172839,40.67901234567901,0)" xlink:href="#am"/><use transform="matrix(0.06172839506172839,0,0,0.06172839506172839,51.79012345679013,0)" xlink:href="#an"/></g><path fill="#333" d="M197 0v-115H63V0H30v-248h33v105h134v-105h34V0h-34" id="aJ"/><path fill="#333" d="M205 0l-28-72H64L36 0H1l101-248h38L239 0h-34zm-38-99l-47-123c-12 45-31 82-46 123h93" id="aK"/><path fill="#333" d="M240 0l2-218c-23 76-54 145-80 218h-23L58-218 59 0H30v-248h44l77 211c21-75 51-140 76-211h43V0h-30" id="aL"/><path fill="#333" d="M30 0v-248h33v221h125V0H30" id="aM"/><g id="l"><use transform="matrix(0.06172839506172839,0,0,0.06172839506172839,0,0)" xlink:href="#aJ"/><use transform="matrix(0.06172839506172839,0,0,0.06172839506172839,15.987654320987653,0)" xlink:href="#aK"/><use transform="matrix(0.06172839506172839,0,0,0.06172839506172839,30.80246913580247,0)" xlink:href="#aL"/><use transform="matrix(0.06172839506172839,0,0,0.06172839506172839,49.25925925925925,0)" xlink:href="#aM"/></g><path fill="#333" d="M33 0v-38h34V0H33" id="aN"/><g id="m"><use transform="matrix(0.06172839506172839,0,0,0.06172839506172839,0,0)" xlink:href="#aN"/><use transform="matrix(0.06172839506172839,0,0,0.06172839506172839,6.172839506172839,0)" xlink:href="#aN"/><use transform="matrix(0.06172839506172839,0,0,0.06172839506172839,12.345679012345679,0)" xlink:href="#aN"/></g><g id="n"><use transform="matrix(0.06172839506172839,0,0,0.06172839506172839,0,0)" xlink:href="#aK"/><use transform="matrix(0.06172839506172839,0,0,0.06172839506172839,14.814814814814813,0)" xlink:href="#ay"/><use transform="matrix(0.06172839506172839,0,0,0.06172839506172839,27.160493827160494,0)" xlink:href="#ay"/><use transform="matrix(0.06172839506172839,0,0,0.06172839506172839,39.50617283950617,0)" xlink:href="#ai"/><use transform="matrix(0.06172839506172839,0,0,0.06172839506172839,46.85185185185185,0)" xlink:href="#al"/><use transform="matrix(0.06172839506172839,0,0,0.06172839506172839,59.197530864197525,0)" xlink:href="#aF"/><use transform="matrix(0.06172839506172839,0,0,0.06172839506172839,70.30864197530863,0)" xlink:href="#aF"/></g><g id="o"><use transform="matrix(0.06172839506172839,0,0,0.06172839506172839,0,0)" xlink:href="#aw"/><use transform="matrix(0.06172839506172839,0,0,0.06172839506172839,11.11111111111111,0)" xlink:href="#au"/><use transform="matrix(0.06172839506172839,0,0,0.06172839506172839,23.45679012345679,0)" xlink:href="#aE"/><use transform="matrix(0.06172839506172839,0,0,0.06172839506172839,28.333333333333336,0)" xlink:href="#ao"/><use transform="matrix(0.06172839506172839,0,0,0.06172839506172839,33.20987654320988,0)" xlink:href="#ay"/><use transform="matrix(0.06172839506172839,0,0,0.06172839506172839,45.55555555555556,0)" xlink:href="#au"/><use transform="matrix(0.06172839506172839,0,0,0.06172839506172839,57.901234567901234,0)" xlink:href="#an"/><use transform="matrix(0.06172839506172839,0,0,0.06172839506172839,64.07407407407408,0)" xlink:href="#ao"/><use transform="matrix(0.06172839506172839,0,0,0.06172839506172839,68.95061728395062,0)" xlink:href="#aj"/><use transform="matrix(0.06172839506172839,0,0,0.06172839506172839,81.2962962962963,0)" xlink:href="#ap"/></g><path fill="#333" d="M33 0v-248h34V0H33" id="aO"/><g id="p"><use transform="matrix(0.06172839506172839,0,0,0.06172839506172839,0,0)" xlink:href="#aK"/><use transform="matrix(0.06172839506172839,0,0,0.06172839506172839,14.814814814814813,0)" xlink:href="#ah"/><use transform="matrix(0.06172839506172839,0,0,0.06172839506172839,29.629629629629626,0)" xlink:href="#aO"/></g><path fill="#333" d="M190 0L58-211 59 0H30v-248h39L202-35l-2-213h31V0h-41" id="aP"/><g id="q"><use transform="matrix(0.06172839506172839,0,0,0.06172839506172839,0,0)" xlink:href="#aO"/><use transform="matrix(0.06172839506172839,0,0,0.06172839506172839,6.172839506172839,0)" xlink:href="#aH"/><use transform="matrix(0.06172839506172839,0,0,0.06172839506172839,20.98765432098765,0)" xlink:href="#aK"/><use transform="matrix(0.06172839506172839,0,0,0.06172839506172839,35.80246913580247,0)" xlink:href="#aP"/></g><g id="r"><use transform="matrix(0.06172839506172839,0,0,0.06172839506172839,0,0)" xlink:href="#aH"/><use transform="matrix(0.06172839506172839,0,0,0.06172839506172839,14.814814814814813,0)" xlink:href="#au"/><use transform="matrix(0.06172839506172839,0,0,0.06172839506172839,27.160493827160494,0)" xlink:href="#ap"/><use transform="matrix(0.06172839506172839,0,0,0.06172839506172839,39.50617283950617,0)" xlink:href="#aI"/></g><g id="s"><use transform="matrix(0.06172839506172839,0,0,0.06172839506172839,0,0)" xlink:href="#av"/><use transform="matrix(0.06172839506172839,0,0,0.06172839506172839,14.814814814814813,0)" xlink:href="#aA"/><use transform="matrix(0.06172839506172839,0,0,0.06172839506172839,32.09876543209876,0)" xlink:href="#aK"/><use transform="matrix(0.06172839506172839,0,0,0.06172839506172839,46.91358024691357,0)" xlink:href="#ah"/></g><g id="t"><use transform="matrix(0.06172839506172839,0,0,0.06172839506172839,0,0)" xlink:href="#aO"/><use transform="matrix(0.06172839506172839,0,0,0.06172839506172839,6.172839506172839,0)" xlink:href="#at"/><use transform="matrix(0.06172839506172839,0,0,0.06172839506172839,24.629629629629626,0)" xlink:href="#au"/><use transform="matrix(0.06172839506172839,0,0,0.06172839506172839,36.9753086419753,0)" xlink:href="#ar"/><use transform="matrix(0.06172839506172839,0,0,0.06172839506172839,49.32098765432098,0)" xlink:href="#al"/></g><path fill="#333" d="M30-248c118-7 216 8 213 122C240-48 200 0 122 0H30v-248zM63-27c89 8 146-16 146-99s-60-101-146-95v194" id="aQ"/><path fill="#333" d="M206 0h-36l-40-164L89 0H53L-1-190h32L70-26l43-164h34l41 164 42-164h31" id="aR"/><g id="u"><use transform="matrix(0.06172839506172839,0,0,0.06172839506172839,0,0)" xlink:href="#aO"/><use transform="matrix(0.06172839506172839,0,0,0.06172839506172839,6.172839506172839,0)" xlink:href="#aQ"/><use transform="matrix(0.06172839506172839,0,0,0.06172839506172839,22.160493827160494,0)" xlink:href="#ap"/><use transform="matrix(0.06172839506172839,0,0,0.06172839506172839,34.50617283950617,0)" xlink:href="#aj"/><use transform="matrix(0.06172839506172839,0,0,0.06172839506172839,46.85185185185185,0)" xlink:href="#aR"/></g><g id="v"><use transform="matrix(0.06172839506172839,0,0,0.06172839506172839,0,0)" xlink:href="#ah"/><use transform="matrix(0.06172839506172839,0,0,0.06172839506172839,14.814814814814813,0)" xlink:href="#ai"/><use transform="matrix(0.06172839506172839,0,0,0.06172839506172839,22.160493827160494,0)" xlink:href="#al"/><use transform="matrix(0.06172839506172839,0,0,0.06172839506172839,34.50617283950617,0)" xlink:href="#as"/><use transform="matrix(0.06172839506172839,0,0,0.06172839506172839,40.67901234567901,0)" xlink:href="#al"/><use transform="matrix(0.06172839506172839,0,0,0.06172839506172839,53.02469135802469,0)" xlink:href="#ai"/><use transform="matrix(0.06172839506172839,0,0,0.06172839506172839,60.37037037037037,0)" xlink:href="#ai"/><use transform="matrix(0.06172839506172839,0,0,0.06172839506172839,67.71604938271605,0)" xlink:href="#al"/><use transform="matrix(0.06172839506172839,0,0,0.06172839506172839,80.06172839506173,0)" xlink:href="#ay"/></g><g id="w"><use transform="matrix(0.06172839506172839,0,0,0.06172839506172839,0,0)" xlink:href="#aK"/><use transform="matrix(0.06172839506172839,0,0,0.06172839506172839,14.814814814814813,0)" xlink:href="#as"/><use transform="matrix(0.06172839506172839,0,0,0.06172839506172839,20.555555555555554,0)" xlink:href="#as"/><use transform="matrix(0.06172839506172839,0,0,0.06172839506172839,26.728395061728392,0)" xlink:href="#ao"/><use transform="matrix(0.06172839506172839,0,0,0.06172839506172839,31.604938271604937,0)" xlink:href="#aE"/><use transform="matrix(0.06172839506172839,0,0,0.06172839506172839,36.48148148148148,0)" xlink:href="#ao"/><use transform="matrix(0.06172839506172839,0,0,0.06172839506172839,41.358024691358025,0)" xlink:href="#au"/><use transform="matrix(0.06172839506172839,0,0,0.06172839506172839,53.7037037037037,0)" xlink:href="#an"/><use transform="matrix(0.06172839506172839,0,0,0.06172839506172839,59.876543209876544,0)" xlink:href="#al"/><use transform="matrix(0.06172839506172839,0,0,0.06172839506172839,72.22222222222223,0)" xlink:href="#aF"/></g><path fill="#333" d="M179-190L93 31C79 59 56 82 12 73V49c39 6 53-20 64-50L1-190h34L92-34l54-156h33" id="aS"/><g id="x"><use transform="matrix(0.06172839506172839,0,0,0.06172839506172839,0,0)" xlink:href="#av"/><use transform="matrix(0.06172839506172839,0,0,0.06172839506172839,14.814814814814813,0)" xlink:href="#an"/><use transform="matrix(0.06172839506172839,0,0,0.06172839506172839,20.98765432098765,0)" xlink:href="#aj"/><use transform="matrix(0.06172839506172839,0,0,0.06172839506172839,33.33333333333333,0)" xlink:href="#ai"/><use transform="matrix(0.06172839506172839,0,0,0.06172839506172839,40.679012345679006,0)" xlink:href="#aS"/><use transform="matrix(0.06172839506172839,0,0,0.06172839506172839,51.79012345679011,0)" xlink:href="#aB"/><use transform="matrix(0.06172839506172839,0,0,0.06172839506172839,64.1358024691358,0)" xlink:href="#aj"/><use transform="matrix(0.06172839506172839,0,0,0.06172839506172839,76.48148148148148,0)" xlink:href="#aj"/><use transform="matrix(0.06172839506172839,0,0,0.06172839506172839,88.82716049382717,0)" xlink:href="#aI"/></g><g id="y"><use transform="matrix(0.049382716049382706,0,0,0.049382716049382706,0,0)" xlink:href="#aG"/><use transform="matrix(0.049382716049382706,0,0,0.049382716049382706,9.87654320987654,0)" xlink:href="#ai"/><use transform="matrix(0.049382716049382706,0,0,0.049382716049382706,15.75308641975308,0)" xlink:href="#aj"/><use transform="matrix(0.049382716049382706,0,0,0.049382716049382706,25.629629629629626,0)" xlink:href="#aw"/><use transform="matrix(0.049382716049382706,0,0,0.049382716049382706,34.51851851851851,0)" xlink:href="#ao"/><use transform="matrix(0.049382716049382706,0,0,0.049382716049382706,38.419753086419746,0)" xlink:href="#ay"/><use transform="matrix(0.049382716049382706,0,0,0.049382716049382706,48.29629629629629,0)" xlink:href="#al"/><use transform="matrix(0.049382716049382706,0,0,0.049382716049382706,58.17283950617284,0)" xlink:href="#aF"/></g><g id="z"><use transform="matrix(0.049382716049382706,0,0,0.049382716049382706,0,0)" xlink:href="#am"/><use transform="matrix(0.049382716049382706,0,0,0.049382716049382706,8.888888888888888,0)" xlink:href="#aj"/><use transform="matrix(0.049382716049382706,0,0,0.049382716049382706,18.76543209876543,0)" xlink:href="#at"/><use transform="matrix(0.049382716049382706,0,0,0.049382716049382706,33.53086419753086,0)" xlink:href="#aG"/><use transform="matrix(0.049382716049382706,0,0,0.049382716049382706,43.407407407407405,0)" xlink:href="#aj"/><use transform="matrix(0.049382716049382706,0,0,0.049382716049382706,53.28395061728395,0)" xlink:href="#ap"/><use transform="matrix(0.049382716049382706,0,0,0.049382716049382706,63.160493827160494,0)" xlink:href="#al"/><use transform="matrix(0.049382716049382706,0,0,0.049382716049382706,73.03703703703704,0)" xlink:href="#ap"/><use transform="matrix(0.049382716049382706,0,0,0.049382716049382706,82.91358024691358,0)" xlink:href="#an"/><use transform="matrix(0.049382716049382706,0,0,0.049382716049382706,87.85185185185185,0)" xlink:href="#aF"/></g><path fill="#333" d="M143 4C61 4 22-44 18-125c-5-107 100-154 193-111 17 8 29 25 37 43l-32 9c-13-25-37-40-76-40-61 0-88 39-88 99 0 61 29 100 91 101 35 0 62-11 79-27v-45h-74v-28h105v86C228-13 192 4 143 4" id="aT"/><path fill="#333" d="M195 0l-74-108L45 0H8l94-129-87-119h37l69 98 67-98h37l-84 118L233 0h-38" id="aU"/><g id="A"><use transform="matrix(0.06172839506172839,0,0,0.06172839506172839,0,0)" xlink:href="#aP"/><use transform="matrix(0.06172839506172839,0,0,0.06172839506172839,15.987654320987653,0)" xlink:href="#aT"/><use transform="matrix(0.06172839506172839,0,0,0.06172839506172839,33.2716049382716,0)" xlink:href="#aO"/><use transform="matrix(0.06172839506172839,0,0,0.06172839506172839,39.44444444444444,0)" xlink:href="#aP"/><use transform="matrix(0.06172839506172839,0,0,0.06172839506172839,55.432098765432094,0)" xlink:href="#aU"/></g><path fill="#333" d="M212-179c-10-28-35-45-73-45-59 0-87 40-87 99 0 60 29 101 89 101 43 0 62-24 78-52l27 14C228-24 195 4 139 4 59 4 22-46 18-125c-6-104 99-153 187-111 19 9 31 26 39 46" id="aV"/><g id="B"><use transform="matrix(0.06172839506172839,0,0,0.06172839506172839,0,0)" xlink:href="#aV"/><use transform="matrix(0.06172839506172839,0,0,0.06172839506172839,15.987654320987653,0)" xlink:href="#aE"/><use transform="matrix(0.06172839506172839,0,0,0.06172839506172839,20.864197530864196,0)" xlink:href="#ao"/><use transform="matrix(0.06172839506172839,0,0,0.06172839506172839,25.74074074074074,0)" xlink:href="#al"/><use transform="matrix(0.06172839506172839,0,0,0.06172839506172839,38.08641975308642,0)" xlink:href="#ap"/><use transform="matrix(0.06172839506172839,0,0,0.06172839506172839,50.432098765432094,0)" xlink:href="#an"/></g><path fill="#333" d="M232-93c-1 65-40 97-104 97C67 4 28-28 28-90v-158h33c8 89-33 224 67 224 102 0 64-133 71-224h33v155" id="aW"/><path fill="#333" d="M127-220V0H93v-220H8v-28h204v28h-85" id="aX"/><g id="C"><use transform="matrix(0.049382716049382706,0,0,0.049382716049382706,0,0)" xlink:href="#ah"/><use transform="matrix(0.049382716049382706,0,0,0.049382716049382706,11.85185185185185,0)" xlink:href="#aW"/><use transform="matrix(0.049382716049382706,0,0,0.049382716049382706,24.64197530864197,0)" xlink:href="#aX"/></g><path fill="#333" d="M0 4l72-265h28L28 4H0" id="aY"/><path fill="#333" d="M84 4C-5 8 30-112 23-190h32v120c0 31 7 50 39 49 72-2 45-101 50-169h31l1 190h-30c-1-10 1-25-2-33-11 22-28 36-60 37" id="aZ"/><g id="D"><use transform="matrix(0.049382716049382706,0,0,0.049382716049382706,0,0)" xlink:href="#aY"/><use transform="matrix(0.049382716049382706,0,0,0.049382716049382706,4.93827160493827,0)" xlink:href="#ai"/><use transform="matrix(0.049382716049382706,0,0,0.049382716049382706,10.814814814814813,0)" xlink:href="#al"/><use transform="matrix(0.049382716049382706,0,0,0.049382716049382706,20.691358024691354,0)" xlink:href="#an"/><use transform="matrix(0.049382716049382706,0,0,0.049382716049382706,25.629629629629626,0)" xlink:href="#aZ"/><use transform="matrix(0.049382716049382706,0,0,0.049382716049382706,35.50617283950616,0)" xlink:href="#ai"/><use transform="matrix(0.049382716049382706,0,0,0.049382716049382706,41.38271604938271,0)" xlink:href="#ap"/><use transform="matrix(0.049382716049382706,0,0,0.049382716049382706,51.25925925925925,0)" xlink:href="#aF"/></g><g id="E"><use transform="matrix(0.049382716049382706,0,0,0.049382716049382706,0,0)" xlink:href="#ah"/><use transform="matrix(0.049382716049382706,0,0,0.049382716049382706,11.85185185185185,0)" xlink:href="#aA"/><use transform="matrix(0.049382716049382706,0,0,0.049382716049382706,25.679012345679006,0)" xlink:href="#av"/><use transform="matrix(0.049382716049382706,0,0,0.049382716049382706,37.53086419753085,0)" xlink:href="#aX"/></g><path fill="#333" d="M-5 72V49h209v23H-5" id="ba"/><path fill="#333" d="M106-169C34-169 62-67 57 0H25v-261h32l-1 103c12-21 28-36 61-36 89 0 53 116 60 194h-32v-121c2-32-8-49-39-48" id="bb"/><g id="F"><use transform="matrix(0.049382716049382706,0,0,0.049382716049382706,0,0)" xlink:href="#aY"/><use transform="matrix(0.049382716049382706,0,0,0.049382716049382706,4.93827160493827,0)" xlink:href="#aB"/><use transform="matrix(0.049382716049382706,0,0,0.049382716049382706,14.814814814814811,0)" xlink:href="#ai"/><use transform="matrix(0.049382716049382706,0,0,0.049382716049382706,20.691358024691354,0)" xlink:href="#al"/><use transform="matrix(0.049382716049382706,0,0,0.049382716049382706,30.567901234567895,0)" xlink:href="#au"/><use transform="matrix(0.049382716049382706,0,0,0.049382716049382706,40.444444444444436,0)" xlink:href="#aI"/><use transform="matrix(0.049382716049382706,0,0,0.049382716049382706,49.33333333333332,0)" xlink:href="#ay"/><use transform="matrix(0.049382716049382706,0,0,0.049382716049382706,59.20987654320985,0)" xlink:href="#aj"/><use transform="matrix(0.049382716049382706,0,0,0.049382716049382706,69.0864197530864,0)" xlink:href="#aR"/><use transform="matrix(0.049382716049382706,0,0,0.049382716049382706,81.87654320987653,0)" xlink:href="#ap"/><use transform="matrix(0.049382716049382706,0,0,0.049382716049382706,91.75308641975307,0)" xlink:href="#ba"/><use transform="matrix(0.049382716049382706,0,0,0.049382716049382706,101.6296296296296,0)" xlink:href="#am"/><use transform="matrix(0.049382716049382706,0,0,0.049382716049382706,110.51851851851849,0)" xlink:href="#bb"/><use transform="matrix(0.049382716049382706,0,0,0.049382716049382706,120.39506172839504,0)" xlink:href="#au"/><use transform="matrix(0.049382716049382706,0,0,0.049382716049382706,130.2716049382716,0)" xlink:href="#ai"/><use transform="matrix(0.049382716049382706,0,0,0.049382716049382706,136.14814814814812,0)" xlink:href="#an"/></g><g id="G"><use transform="matrix(0.049382716049382706,0,0,0.049382716049382706,0,0)" xlink:href="#aY"/><use transform="matrix(0.049382716049382706,0,0,0.049382716049382706,4.93827160493827,0)" xlink:href="#aG"/><use transform="matrix(0.049382716049382706,0,0,0.049382716049382706,14.814814814814811,0)" xlink:href="#ao"/><use transform="matrix(0.049382716049382706,0,0,0.049382716049382706,18.716049382716044,0)" xlink:href="#al"/><use transform="matrix(0.049382716049382706,0,0,0.049382716049382706,28.592592592592588,0)" xlink:href="#ba"/><use transform="matrix(0.049382716049382706,0,0,0.049382716049382706,38.469135802469125,0)" xlink:href="#am"/><use transform="matrix(0.049382716049382706,0,0,0.049382716049382706,47.35802469135801,0)" xlink:href="#bb"/><use transform="matrix(0.049382716049382706,0,0,0.049382716049382706,57.234567901234556,0)" xlink:href="#au"/><use transform="matrix(0.049382716049382706,0,0,0.049382716049382706,67.1111111111111,0)" xlink:href="#ai"/><use transform="matrix(0.049382716049382706,0,0,0.049382716049382706,72.98765432098764,0)" xlink:href="#an"/></g><g id="H"><use transform="matrix(0.049382716049382706,0,0,0.049382716049382706,0,0)" xlink:href="#aY"/><use transform="matrix(0.049382716049382706,0,0,0.049382716049382706,4.93827160493827,0)" xlink:href="#aG"/><use transform="matrix(0.049382716049382706,0,0,0.049382716049382706,14.814814814814811,0)" xlink:href="#al"/><use transform="matrix(0.049382716049382706,0,0,0.049382716049382706,24.691358024691354,0)" xlink:href="#ai"/><use transform="matrix(0.049382716049382706,0,0,0.049382716049382706,30.567901234567895,0)" xlink:href="#as"/><use transform="matrix(0.049382716049382706,0,0,0.049382716049382706,35.50617283950616,0)" xlink:href="#aj"/><use transform="matrix(0.049382716049382706,0,0,0.049382716049382706,45.38271604938271,0)" xlink:href="#ai"/><use transform="matrix(0.049382716049382706,0,0,0.049382716049382706,51.25925925925925,0)" xlink:href="#at"/><use transform="matrix(0.049382716049382706,0,0,0.049382716049382706,66.02469135802468,0)" xlink:href="#au"/><use transform="matrix(0.049382716049382706,0,0,0.049382716049382706,75.90123456790123,0)" xlink:href="#ap"/><use transform="matrix(0.049382716049382706,0,0,0.049382716049382706,85.77777777777777,0)" xlink:href="#am"/><use transform="matrix(0.049382716049382706,0,0,0.049382716049382706,94.66666666666666,0)" xlink:href="#al"/><use transform="matrix(0.049382716049382706,0,0,0.049382716049382706,104.54320987654322,0)" xlink:href="#ba"/><use transform="matrix(0.049382716049382706,0,0,0.049382716049382706,114.41975308641975,0)" xlink:href="#am"/><use transform="matrix(0.049382716049382706,0,0,0.049382716049382706,123.30864197530865,0)" xlink:href="#bb"/><use transform="matrix(0.049382716049382706,0,0,0.049382716049382706,133.18518518518516,0)" xlink:href="#au"/><use transform="matrix(0.049382716049382706,0,0,0.049382716049382706,143.0617283950617,0)" xlink:href="#ai"/><use transform="matrix(0.049382716049382706,0,0,0.049382716049382706,148.93827160493822,0)" xlink:href="#an"/></g><g id="I"><use transform="matrix(0.049382716049382706,0,0,0.049382716049382706,0,0)" xlink:href="#aT"/><use transform="matrix(0.049382716049382706,0,0,0.049382716049382706,13.827160493827158,0)" xlink:href="#aq"/><use transform="matrix(0.049382716049382706,0,0,0.049382716049382706,25.679012345679006,0)" xlink:href="#aX"/></g><g id="J"><use transform="matrix(0.049382716049382706,0,0,0.049382716049382706,0,0)" xlink:href="#aY"/><use transform="matrix(0.049382716049382706,0,0,0.049382716049382706,4.93827160493827,0)" xlink:href="#aG"/><use transform="matrix(0.049382716049382706,0,0,0.049382716049382706,14.814814814814811,0)" xlink:href="#al"/><use transform="matrix(0.049382716049382706,0,0,0.049382716049382706,24.691358024691354,0)" xlink:href="#ai"/><use transform="matrix(0.049382716049382706,0,0,0.049382716049382706,30.567901234567895,0)" xlink:href="#as"/><use transform="matrix(0.049382716049382706,0,0,0.049382716049382706,35.50617283950616,0)" xlink:href="#aj"/><use transform="matrix(0.049382716049382706,0,0,0.049382716049382706,45.38271604938271,0)" xlink:href="#ai"/><use transform="matrix(0.049382716049382706,0,0,0.049382716049382706,51.25925925925925,0)" xlink:href="#at"/><use transform="matrix(0.049382716049382706,0,0,0.049382716049382706,66.02469135802468,0)" xlink:href="#au"/><use transform="matrix(0.049382716049382706,0,0,0.049382716049382706,75.90123456790123,0)" xlink:href="#ap"/><use transform="matrix(0.049382716049382706,0,0,0.049382716049382706,85.77777777777777,0)" xlink:href="#am"/><use transform="matrix(0.049382716049382706,0,0,0.049382716049382706,94.66666666666666,0)" xlink:href="#al"/><use transform="matrix(0.049382716049382706,0,0,0.049382716049382706,104.54320987654322,0)" xlink:href="#aF"/></g><g id="K"><use transform="matrix(0.049382716049382706,0,0,0.049382716049382706,0,0)" xlink:href="#aY"/><use transform="matrix(0.049382716049382706,0,0,0.049382716049382706,4.93827160493827,0)" xlink:href="#aB"/><use transform="matrix(0.049382716049382706,0,0,0.049382716049382706,14.814814814814811,0)" xlink:href="#al"/><use transform="matrix(0.049382716049382706,0,0,0.049382716049382706,24.691358024691354,0)" xlink:href="#ap"/><use transform="matrix(0.049382716049382706,0,0,0.049382716049382706,34.5679012345679,0)" xlink:href="#am"/><use transform="matrix(0.049382716049382706,0,0,0.049382716049382706,43.456790123456784,0)" xlink:href="#bb"/><use transform="matrix(0.049382716049382706,0,0,0.049382716049382706,53.333333333333336,0)" xlink:href="#at"/><use transform="matrix(0.049382716049382706,0,0,0.049382716049382706,68.09876543209876,0)" xlink:href="#au"/><use transform="matrix(0.049382716049382706,0,0,0.049382716049382706,77.9753086419753,0)" xlink:href="#ai"/><use transform="matrix(0.049382716049382706,0,0,0.049382716049382706,83.85185185185185,0)" xlink:href="#aI"/></g><g id="L"><use transform="matrix(0.049382716049382706,0,0,0.049382716049382706,0,0)" xlink:href="#aY"/><use transform="matrix(0.049382716049382706,0,0,0.049382716049382706,4.93827160493827,0)" xlink:href="#aF"/><use transform="matrix(0.049382716049382706,0,0,0.049382716049382706,13.827160493827158,0)" xlink:href="#al"/><use transform="matrix(0.049382716049382706,0,0,0.049382716049382706,23.7037037037037,0)" xlink:href="#an"/><use transform="matrix(0.049382716049382706,0,0,0.049382716049382706,28.64197530864197,0)" xlink:href="#an"/><use transform="matrix(0.049382716049382706,0,0,0.049382716049382706,33.58024691358024,0)" xlink:href="#aE"/><use transform="matrix(0.049382716049382706,0,0,0.049382716049382706,37.481481481481474,0)" xlink:href="#al"/><use transform="matrix(0.049382716049382706,0,0,0.049382716049382706,47.35802469135801,0)" xlink:href="#at"/><use transform="matrix(0.049382716049382706,0,0,0.049382716049382706,62.12345679012344,0)" xlink:href="#al"/><use transform="matrix(0.049382716049382706,0,0,0.049382716049382706,71.99999999999999,0)" xlink:href="#ap"/><use transform="matrix(0.049382716049382706,0,0,0.049382716049382706,81.87654320987653,0)" xlink:href="#an"/><use transform="matrix(0.049382716049382706,0,0,0.049382716049382706,86.8148148148148,0)" xlink:href="#aF"/></g><g id="M"><use transform="matrix(0.049382716049382706,0,0,0.049382716049382706,0,0)" xlink:href="#aQ"/><use transform="matrix(0.049382716049382706,0,0,0.049382716049382706,12.790123456790122,0)" xlink:href="#aq"/><use transform="matrix(0.049382716049382706,0,0,0.049382716049382706,24.64197530864197,0)" xlink:href="#aM"/><use transform="matrix(0.049382716049382706,0,0,0.049382716049382706,34.51851851851851,0)" xlink:href="#aq"/><use transform="matrix(0.049382716049382706,0,0,0.049382716049382706,46.37037037037036,0)" xlink:href="#aX"/><use transform="matrix(0.049382716049382706,0,0,0.049382716049382706,57.185185185185176,0)" xlink:href="#aq"/></g><g id="N"><use transform="matrix(0.049382716049382706,0,0,0.049382716049382706,0,0)" xlink:href="#aY"/><use transform="matrix(0.049382716049382706,0,0,0.049382716049382706,4.93827160493827,0)" xlink:href="#aF"/><use transform="matrix(0.049382716049382706,0,0,0.049382716049382706,13.827160493827158,0)" xlink:href="#al"/><use transform="matrix(0.049382716049382706,0,0,0.049382716049382706,23.7037037037037,0)" xlink:href="#an"/><use transform="matrix(0.049382716049382706,0,0,0.049382716049382706,28.64197530864197,0)" xlink:href="#an"/><use transform="matrix(0.049382716049382706,0,0,0.049382716049382706,33.58024691358024,0)" xlink:href="#aE"/><use transform="matrix(0.049382716049382706,0,0,0.049382716049382706,37.481481481481474,0)" xlink:href="#al"/><use transform="matrix(0.049382716049382706,0,0,0.049382716049382706,47.35802469135801,0)" xlink:href="#at"/><use transform="matrix(0.049382716049382706,0,0,0.049382716049382706,62.12345679012344,0)" xlink:href="#al"/><use transform="matrix(0.049382716049382706,0,0,0.049382716049382706,71.99999999999999,0)" xlink:href="#ap"/><use transform="matrix(0.049382716049382706,0,0,0.049382716049382706,81.87654320987653,0)" xlink:href="#an"/><use transform="matrix(0.049382716049382706,0,0,0.049382716049382706,86.8148148148148,0)" xlink:href="#aF"/><use transform="matrix(0.049382716049382706,0,0,0.049382716049382706,95.70370370370368,0)" xlink:href="#aY"/><use transform="matrix(0.049382716049382706,0,0,0.049382716049382706,100.64197530864195,0)" xlink:href="#am"/><use transform="matrix(0.049382716049382706,0,0,0.049382716049382706,109.53086419753085,0)" xlink:href="#aE"/><use transform="matrix(0.049382716049382706,0,0,0.049382716049382706,113.43209876543206,0)" xlink:href="#al"/><use transform="matrix(0.049382716049382706,0,0,0.049382716049382706,123.30864197530859,0)" xlink:href="#au"/><use transform="matrix(0.049382716049382706,0,0,0.049382716049382706,133.18518518518513,0)" xlink:href="#ai"/></g><path d="M30-248c87 1 191-15 191 75 0 78-77 80-158 76V0H30v-248zm33 125c57 0 124 11 124-50 0-59-68-47-124-48v98" id="bc"/><path d="M100-194c62-1 85 37 85 99 1 63-27 99-86 99S16-35 15-95c0-66 28-99 85-99zM99-20c44 1 53-31 53-75 0-43-8-75-51-75s-53 32-53 75 10 74 51 75" id="bd"/><path d="M135-143c-3-34-86-38-87 0 15 53 115 12 119 90S17 21 10-45l28-5c4 36 97 45 98 0-10-56-113-15-118-90-4-57 82-63 122-42 12 7 21 19 24 35" id="be"/><path d="M59-47c-2 24 18 29 38 22v24C64 9 27 4 27-40v-127H5v-23h24l9-43h21v43h35v23H59v120" id="bf"/><path d="M177-190C167-65 218 103 67 71c-23-6-38-20-44-43l32-5c15 47 100 32 89-28v-30C133-14 115 1 83 1 29 1 15-40 15-95c0-56 16-97 71-98 29-1 48 16 59 35 1-10 0-23 2-32h30zM94-22c36 0 50-32 50-73 0-42-14-75-50-75-39 0-46 34-46 75s6 73 46 73" id="bg"/><path d="M114-163C36-179 61-72 57 0H25l-1-190h30c1 12-1 29 2 39 6-27 23-49 58-41v29" id="bh"/><path d="M100-194c63 0 86 42 84 106H49c0 40 14 67 53 68 26 1 43-12 49-29l28 8c-11 28-37 45-77 45C44 4 14-33 15-96c1-61 26-98 85-98zm52 81c6-60-76-77-97-28-3 7-6 17-6 28h103" id="bi"/><path d="M185-189c-5-48-123-54-124 2 14 75 158 14 163 119 3 78-121 87-175 55-17-10-28-26-33-46l33-7c5 56 141 63 141-1 0-78-155-14-162-118-5-82 145-84 179-34 5 7 8 16 11 25" id="bj"/><path d="M140-251c81 0 123 46 123 126C263-53 228-8 163 1c7 30 30 48 69 40v23c-55 16-95-15-103-61C56-3 17-48 17-125c0-80 42-126 123-126zm0 227c63 0 89-41 89-101s-29-99-89-99c-61 0-89 39-89 99S79-25 140-24" id="bk"/><path d="M30 0v-248h33v221h125V0H30" id="bl"/><g id="O"><use transform="matrix(0.05,0,0,0.05,0,0)" xlink:href="#bc"/><use transform="matrix(0.05,0,0,0.05,12,0)" xlink:href="#bd"/><use transform="matrix(0.05,0,0,0.05,22,0)" xlink:href="#be"/><use transform="matrix(0.05,0,0,0.05,31,0)" xlink:href="#bf"/><use transform="matrix(0.05,0,0,0.05,36,0)" xlink:href="#bg"/><use transform="matrix(0.05,0,0,0.05,46,0)" xlink:href="#bh"/><use transform="matrix(0.05,0,0,0.05,51.95,0)" xlink:href="#bi"/><use transform="matrix(0.05,0,0,0.05,61.95,0)" xlink:href="#bj"/><use transform="matrix(0.05,0,0,0.05,73.95,0)" xlink:href="#bk"/><use transform="matrix(0.05,0,0,0.05,87.95,0)" xlink:href="#bl"/></g><path fill="#333" d="M141 0L90-78 38 0H4l68-98-65-92h35l48 74 47-74h35l-64 92 68 98h-35" id="bm"/><g id="P"><use transform="matrix(0.06172839506172839,0,0,0.06172839506172839,0,0)" xlink:href="#aq"/><use transform="matrix(0.06172839506172839,0,0,0.06172839506172839,14.814814814814813,0)" xlink:href="#bm"/><use transform="matrix(0.06172839506172839,0,0,0.06172839506172839,25.925925925925924,0)" xlink:href="#an"/><use transform="matrix(0.06172839506172839,0,0,0.06172839506172839,32.098765432098766,0)" xlink:href="#al"/><use transform="matrix(0.06172839506172839,0,0,0.06172839506172839,44.44444444444444,0)" xlink:href="#ai"/><use transform="matrix(0.06172839506172839,0,0,0.06172839506172839,51.79012345679012,0)" xlink:href="#ap"/><use transform="matrix(0.06172839506172839,0,0,0.06172839506172839,64.1358024691358,0)" xlink:href="#au"/><use transform="matrix(0.06172839506172839,0,0,0.06172839506172839,76.48148148148148,0)" xlink:href="#aE"/></g><g id="Q"><use transform="matrix(0.06172839506172839,0,0,0.06172839506172839,0,0)" xlink:href="#aF"/><use transform="matrix(0.06172839506172839,0,0,0.06172839506172839,11.11111111111111,0)" xlink:href="#al"/><use transform="matrix(0.06172839506172839,0,0,0.06172839506172839,23.45679012345679,0)" xlink:href="#ai"/><use transform="matrix(0.06172839506172839,0,0,0.06172839506172839,30.80246913580247,0)" xlink:href="#aw"/><use transform="matrix(0.06172839506172839,0,0,0.06172839506172839,41.91358024691358,0)" xlink:href="#ao"/><use transform="matrix(0.06172839506172839,0,0,0.06172839506172839,46.79012345679013,0)" xlink:href="#am"/><use transform="matrix(0.06172839506172839,0,0,0.06172839506172839,57.90123456790124,0)" xlink:href="#al"/><use transform="matrix(0.06172839506172839,0,0,0.06172839506172839,70.24691358024693,0)" xlink:href="#aF"/></g><path d="M160-131c35 5 61 23 61 61C221 17 115-2 30 0v-248c76 3 177-17 177 60 0 33-19 50-47 57zm-97-11c50-1 110 9 110-42 0-47-63-36-110-37v79zm0 115c55-2 124 14 124-45 0-56-70-42-124-44v89" id="bn"/><path d="M141-36C126-15 110 5 73 4 37 3 15-17 15-53c-1-64 63-63 125-63 3-35-9-54-41-54-24 1-41 7-42 31l-33-3c5-37 33-52 76-52 45 0 72 20 72 64v82c-1 20 7 32 28 27v20c-31 9-61-2-59-35zM48-53c0 20 12 33 32 33 41-3 63-29 60-74-43 2-92-5-92 41" id="bo"/><path d="M117-194c89-4 53 116 60 194h-32v-121c0-31-8-49-39-48C34-167 62-67 57 0H25l-1-190h30c1 10-1 24 2 32 11-22 29-35 61-36" id="bp"/><path d="M143 0L79-87 56-68V0H24v-261h32v163l83-92h37l-77 82L181 0h-38" id="bq"/><g id="R"><use transform="matrix(0.05,0,0,0.05,0,0)" xlink:href="#bn"/><use transform="matrix(0.05,0,0,0.05,12,0)" xlink:href="#bo"/><use transform="matrix(0.05,0,0,0.05,22,0)" xlink:href="#bp"/><use transform="matrix(0.05,0,0,0.05,32,0)" xlink:href="#bq"/></g><path d="M30-248c118-7 216 8 213 122C240-48 200 0 122 0H30v-248zM63-27c89 8 146-16 146-99s-60-101-146-95v194" id="br"/><path d="M266 0h-40l-56-210L115 0H75L2-248h35L96-30l15-64 43-154h32l59 218 59-218h35" id="bs"/><path d="M197 0v-115H63V0H30v-248h33v105h134v-105h34V0h-34" id="bt"/><g id="S"><use transform="matrix(0.05,0,0,0.05,0,0)" xlink:href="#br"/><use transform="matrix(0.05,0,0,0.05,12.950000000000001,0)" xlink:href="#bs"/><use transform="matrix(0.05,0,0,0.05,29.899999999999995,0)" xlink:href="#bt"/></g><path fill="#333" d="M153-248C145-148 188 4 80 4 36 3 13-21 6-62l32-5c4 25 16 42 43 43 27 0 39-20 39-49v-147H72v-28h81" id="bu"/><g id="T"><use transform="matrix(0.04320987654320987,0,0,0.04320987654320987,0,0)" xlink:href="#aJ"/><use transform="matrix(0.04320987654320987,0,0,0.04320987654320987,11.191358024691356,0)" xlink:href="#aX"/><use transform="matrix(0.04320987654320987,0,0,0.04320987654320987,20.654320987654316,0)" xlink:href="#aX"/><use transform="matrix(0.04320987654320987,0,0,0.04320987654320987,30.117283950617278,0)" xlink:href="#ah"/><use transform="matrix(0.04320987654320987,0,0,0.04320987654320987,40.487654320987644,0)" xlink:href="#aY"/><use transform="matrix(0.04320987654320987,0,0,0.04320987654320987,44.80864197530863,0)" xlink:href="#bu"/><use transform="matrix(0.04320987654320987,0,0,0.04320987654320987,52.58641975308641,0)" xlink:href="#av"/><use transform="matrix(0.04320987654320987,0,0,0.04320987654320987,62.95679012345678,0)" xlink:href="#aA"/><use transform="matrix(0.04320987654320987,0,0,0.04320987654320987,75.05555555555554,0)" xlink:href="#aP"/></g><g id="U"><use transform="matrix(0.04320987654320987,0,0,0.04320987654320987,0,0)" xlink:href="#aJ"/><use transform="matrix(0.04320987654320987,0,0,0.04320987654320987,11.191358024691356,0)" xlink:href="#aX"/><use transform="matrix(0.04320987654320987,0,0,0.04320987654320987,20.654320987654316,0)" xlink:href="#aX"/><use transform="matrix(0.04320987654320987,0,0,0.04320987654320987,30.117283950617278,0)" xlink:href="#ah"/><use transform="matrix(0.04320987654320987,0,0,0.04320987654320987,40.487654320987644,0)" xlink:href="#aY"/><use transform="matrix(0.04320987654320987,0,0,0.04320987654320987,44.80864197530863,0)" xlink:href="#aJ"/><use transform="matrix(0.04320987654320987,0,0,0.04320987654320987,55.999999999999986,0)" xlink:href="#aX"/><use transform="matrix(0.04320987654320987,0,0,0.04320987654320987,65.46296296296295,0)" xlink:href="#aL"/><use transform="matrix(0.04320987654320987,0,0,0.04320987654320987,78.3827160493827,0)" xlink:href="#aM"/></g><g id="V"><use transform="matrix(0.06172839506172839,0,0,0.06172839506172839,0,0)" xlink:href="#aX"/><use transform="matrix(0.06172839506172839,0,0,0.06172839506172839,12.28395061728395,0)" xlink:href="#aR"/><use transform="matrix(0.06172839506172839,0,0,0.06172839506172839,28.2716049382716,0)" xlink:href="#ao"/><use transform="matrix(0.06172839506172839,0,0,0.06172839506172839,33.148148148148145,0)" xlink:href="#aE"/><use transform="matrix(0.06172839506172839,0,0,0.06172839506172839,38.02469135802469,0)" xlink:href="#ao"/><use transform="matrix(0.06172839506172839,0,0,0.06172839506172839,42.901234567901234,0)" xlink:href="#aj"/></g><g id="W"><use transform="matrix(0.06172839506172839,0,0,0.06172839506172839,0,0)" xlink:href="#aJ"/><use transform="matrix(0.06172839506172839,0,0,0.06172839506172839,15.987654320987653,0)" xlink:href="#aZ"/><use transform="matrix(0.06172839506172839,0,0,0.06172839506172839,28.333333333333332,0)" xlink:href="#aB"/><use transform="matrix(0.06172839506172839,0,0,0.06172839506172839,40.67901234567901,0)" xlink:href="#aF"/><use transform="matrix(0.06172839506172839,0,0,0.06172839506172839,51.79012345679013,0)" xlink:href="#aG"/><use transform="matrix(0.06172839506172839,0,0,0.06172839506172839,64.13580246913581,0)" xlink:href="#aj"/><use transform="matrix(0.06172839506172839,0,0,0.06172839506172839,76.4814814814815,0)" xlink:href="#an"/></g><g id="X"><use transform="matrix(0.06172839506172839,0,0,0.06172839506172839,0,0)" xlink:href="#aL"/><use transform="matrix(0.06172839506172839,0,0,0.06172839506172839,18.456790123456788,0)" xlink:href="#aj"/><use transform="matrix(0.06172839506172839,0,0,0.06172839506172839,30.80246913580247,0)" xlink:href="#ai"/><use transform="matrix(0.06172839506172839,0,0,0.06172839506172839,38.148148148148145,0)" xlink:href="#ap"/><use transform="matrix(0.06172839506172839,0,0,0.06172839506172839,50.49382716049382,0)" xlink:href="#ao"/><use transform="matrix(0.06172839506172839,0,0,0.06172839506172839,55.37037037037037,0)" xlink:href="#ap"/><use transform="matrix(0.06172839506172839,0,0,0.06172839506172839,67.71604938271605,0)" xlink:href="#ar"/><use transform="matrix(0.06172839506172839,0,0,0.06172839506172839,80.06172839506173,0)" xlink:href="#aF"/><use transform="matrix(0.06172839506172839,0,0,0.06172839506172839,91.17283950617285,0)" xlink:href="#an"/><use transform="matrix(0.06172839506172839,0,0,0.06172839506172839,97.34567901234568,0)" xlink:href="#au"/><use transform="matrix(0.06172839506172839,0,0,0.06172839506172839,109.69135802469137,0)" xlink:href="#ai"/></g><g id="Y"><use transform="matrix(0.055555555555555546,0,0,0.055555555555555546,0,0)" xlink:href="#aX"/><use transform="matrix(0.055555555555555546,0,0,0.055555555555555546,12.166666666666664,0)" xlink:href="#bb"/><use transform="matrix(0.055555555555555546,0,0,0.055555555555555546,23.27777777777777,0)" xlink:href="#ai"/><use transform="matrix(0.055555555555555546,0,0,0.055555555555555546,29.888888888888882,0)" xlink:href="#al"/><use transform="matrix(0.055555555555555546,0,0,0.055555555555555546,40.99999999999999,0)" xlink:href="#aF"/><use transform="matrix(0.055555555555555546,0,0,0.055555555555555546,50.99999999999999,0)" xlink:href="#bb"/><use transform="matrix(0.055555555555555546,0,0,0.055555555555555546,62.1111111111111,0)" xlink:href="#aj"/><use transform="matrix(0.055555555555555546,0,0,0.055555555555555546,73.22222222222221,0)" xlink:href="#aE"/><use transform="matrix(0.055555555555555546,0,0,0.055555555555555546,77.6111111111111,0)" xlink:href="#ay"/></g><g id="Z"><use transform="matrix(0.055555555555555546,0,0,0.055555555555555546,0,0)" xlink:href="#aK"/><use transform="matrix(0.055555555555555546,0,0,0.055555555555555546,13.33333333333333,0)" xlink:href="#ah"/><use transform="matrix(0.055555555555555546,0,0,0.055555555555555546,26.66666666666666,0)" xlink:href="#aO"/></g><g id="aa"><use transform="matrix(0.055555555555555546,0,0,0.055555555555555546,0,0)" xlink:href="#as"/><use transform="matrix(0.055555555555555546,0,0,0.055555555555555546,5.5555555555555545,0)" xlink:href="#aE"/><use transform="matrix(0.055555555555555546,0,0,0.055555555555555546,9.944444444444443,0)" xlink:href="#au"/><use transform="matrix(0.055555555555555546,0,0,0.055555555555555546,21.05555555555555,0)" xlink:href="#an"/><use transform="matrix(0.055555555555555546,0,0,0.055555555555555546,26.611111111111104,0)" xlink:href="#al"/><use transform="matrix(0.055555555555555546,0,0,0.055555555555555546,37.722222222222214,0)" xlink:href="#bm"/></g><g id="ab"><use transform="matrix(0.049382716049382706,0,0,0.049382716049382706,0,0)" xlink:href="#aY"/><use transform="matrix(0.049382716049382706,0,0,0.049382716049382706,4.93827160493827,0)" xlink:href="#an"/><use transform="matrix(0.049382716049382706,0,0,0.049382716049382706,9.87654320987654,0)" xlink:href="#bb"/><use transform="matrix(0.049382716049382706,0,0,0.049382716049382706,19.75308641975308,0)" xlink:href="#ai"/><use transform="matrix(0.049382716049382706,0,0,0.049382716049382706,25.629629629629626,0)" xlink:href="#al"/><use transform="matrix(0.049382716049382706,0,0,0.049382716049382706,35.50617283950616,0)" xlink:href="#aF"/><use transform="matrix(0.049382716049382706,0,0,0.049382716049382706,44.39506172839505,0)" xlink:href="#bb"/><use transform="matrix(0.049382716049382706,0,0,0.049382716049382706,54.271604938271594,0)" xlink:href="#aj"/><use transform="matrix(0.049382716049382706,0,0,0.049382716049382706,64.14814814814814,0)" xlink:href="#aE"/><use transform="matrix(0.049382716049382706,0,0,0.049382716049382706,68.04938271604937,0)" xlink:href="#ay"/><use transform="matrix(0.049382716049382706,0,0,0.049382716049382706,77.92592592592591,0)" xlink:href="#ba"/><use transform="matrix(0.049382716049382706,0,0,0.049382716049382706,87.80246913580245,0)" xlink:href="#au"/><use transform="matrix(0.049382716049382706,0,0,0.049382716049382706,97.679012345679,0)" xlink:href="#aG"/><use transform="matrix(0.049382716049382706,0,0,0.049382716049382706,107.55555555555553,0)" xlink:href="#ao"/><use transform="matrix(0.049382716049382706,0,0,0.049382716049382706,111.45679012345677,0)" xlink:href="#aY"/><use transform="matrix(0.049382716049382706,0,0,0.049382716049382706,116.39506172839504,0)" xlink:href="#an"/><use transform="matrix(0.049382716049382706,0,0,0.049382716049382706,121.33333333333331,0)" xlink:href="#bb"/><use transform="matrix(0.049382716049382706,0,0,0.049382716049382706,131.20987654320984,0)" xlink:href="#ai"/><use transform="matrix(0.049382716049382706,0,0,0.049382716049382706,137.08641975308637,0)" xlink:href="#al"/><use transform="matrix(0.049382716049382706,0,0,0.049382716049382706,146.9629629629629,0)" xlink:href="#aF"/><use transform="matrix(0.049382716049382706,0,0,0.049382716049382706,155.8518518518518,0)" xlink:href="#bb"/><use transform="matrix(0.049382716049382706,0,0,0.049382716049382706,165.72839506172832,0)" xlink:href="#aj"/><use transform="matrix(0.049382716049382706,0,0,0.049382716049382706,175.60493827160485,0)" xlink:href="#aE"/><use transform="matrix(0.049382716049382706,0,0,0.049382716049382706,179.5061728395061,0)" xlink:href="#ay"/><use transform="matrix(0.049382716049382706,0,0,0.049382716049382706,189.38271604938262,0)" xlink:href="#ba"/><use transform="matrix(0.049382716049382706,0,0,0.049382716049382706,199.25925925925915,0)" xlink:href="#aF"/><use transform="matrix(0.049382716049382706,0,0,0.049382716049382706,208.148148148148,0)" xlink:href="#an"/><use transform="matrix(0.049382716049382706,0,0,0.049382716049382706,213.08641975308635,0)" xlink:href="#au"/><use transform="matrix(0.049382716049382706,0,0,0.049382716049382706,222.96296296296282,0)" xlink:href="#ai"/><use transform="matrix(0.049382716049382706,0,0,0.049382716049382706,228.83950617283938,0)" xlink:href="#an"/><use transform="matrix(0.049382716049382706,0,0,0.049382716049382706,233.77777777777763,0)" xlink:href="#ba"/><use transform="matrix(0.049382716049382706,0,0,0.049382716049382706,243.6543209876542,0)" xlink:href="#ay"/><use transform="matrix(0.049382716049382706,0,0,0.049382716049382706,253.53086419753072,0)" xlink:href="#au"/><use transform="matrix(0.049382716049382706,0,0,0.049382716049382706,263.4074074074073,0)" xlink:href="#an"/><use transform="matrix(0.049382716049382706,0,0,0.049382716049382706,268.34567901234556,0)" xlink:href="#al"/></g><path fill="#333" d="M137 0h-34L2-248h35l83 218 83-218h36" id="bv"/><g id="ac"><use transform="matrix(0.04320987654320987,0,0,0.04320987654320987,0,0)" xlink:href="#aJ"/><use transform="matrix(0.04320987654320987,0,0,0.04320987654320987,11.191358024691356,0)" xlink:href="#aX"/><use transform="matrix(0.04320987654320987,0,0,0.04320987654320987,20.654320987654316,0)" xlink:href="#aX"/><use transform="matrix(0.04320987654320987,0,0,0.04320987654320987,30.117283950617278,0)" xlink:href="#ah"/><use transform="matrix(0.04320987654320987,0,0,0.04320987654320987,40.487654320987644,0)" xlink:href="#aY"/><use transform="matrix(0.04320987654320987,0,0,0.04320987654320987,44.80864197530863,0)" xlink:href="#aV"/><use transform="matrix(0.04320987654320987,0,0,0.04320987654320987,55.999999999999986,0)" xlink:href="#av"/><use transform="matrix(0.04320987654320987,0,0,0.04320987654320987,66.37037037037035,0)" xlink:href="#bv"/></g><g id="ad"><use transform="matrix(0.049382716049382706,0,0,0.049382716049382706,0,0)" xlink:href="#aY"/><use transform="matrix(0.049382716049382706,0,0,0.049382716049382706,4.93827160493827,0)" xlink:href="#ai"/><use transform="matrix(0.049382716049382706,0,0,0.049382716049382706,10.814814814814813,0)" xlink:href="#al"/><use transform="matrix(0.049382716049382706,0,0,0.049382716049382706,20.691358024691354,0)" xlink:href="#aF"/><use transform="matrix(0.049382716049382706,0,0,0.049382716049382706,29.58024691358024,0)" xlink:href="#aZ"/><use transform="matrix(0.049382716049382706,0,0,0.049382716049382706,39.456790123456784,0)" xlink:href="#aE"/><use transform="matrix(0.049382716049382706,0,0,0.049382716049382706,43.35802469135802,0)" xlink:href="#an"/></g><g id="ae"><use transform="matrix(0.04320987654320987,0,0,0.04320987654320987,0,0)" xlink:href="#aJ"/><use transform="matrix(0.04320987654320987,0,0,0.04320987654320987,11.191358024691356,0)" xlink:href="#aX"/><use transform="matrix(0.04320987654320987,0,0,0.04320987654320987,20.654320987654316,0)" xlink:href="#aX"/><use transform="matrix(0.04320987654320987,0,0,0.04320987654320987,30.117283950617278,0)" xlink:href="#ah"/><use transform="matrix(0.04320987654320987,0,0,0.04320987654320987,40.487654320987644,0)" xlink:href="#aY"/><use transform="matrix(0.04320987654320987,0,0,0.04320987654320987,44.80864197530863,0)" xlink:href="#bu"/><use transform="matrix(0.04320987654320987,0,0,0.04320987654320987,52.58641975308641,0)" xlink:href="#av"/><use transform="matrix(0.04320987654320987,0,0,0.04320987654320987,62.95679012345678,0)" xlink:href="#aA"/><use transform="matrix(0.04320987654320987,0,0,0.04320987654320987,75.05555555555554,0)" xlink:href="#aP"/></g><path fill="#333" d="M14 0l48-248h34L48 0H14" id="bw"/><path fill="#333" d="M248-139C247-14 144 9 11 0l48-248c105-6 190 8 189 109zm-34 0c1-70-52-87-126-82L50-27c98 7 163-21 164-112" id="bx"/><path fill="#333" d="M67-158c22-48 132-52 116 29L158 0h-32l25-140c3-38-53-32-70-12C52-117 51-52 38 0H6l36-190h30" id="by"/><path fill="#333" d="M30-147c31-64 166-65 159 27C183-49 158 1 86 4 9 8 1-88 30-147zM88-20c53 0 68-48 68-100 0-31-11-51-44-50-52 1-68 46-68 97 0 32 13 53 44 53" id="bz"/><path fill="#333" d="M188 0h-37l-8-164L71 0H34L18-190h31l8 164 75-164h34l8 164 74-164h31" id="bA"/><g id="af"><use transform="matrix(0.04320987654320987,0,0,0.04320987654320987,0,0)" xlink:href="#az"/><use transform="matrix(0.04320987654320987,0,0,0.04320987654320987,5.141975308641975,0)" xlink:href="#bw"/><use transform="matrix(0.04320987654320987,0,0,0.04320987654320987,9.462962962962962,0)" xlink:href="#bx"/><use transform="matrix(0.04320987654320987,0,0,0.04320987654320987,20.654320987654316,0)" xlink:href="#by"/><use transform="matrix(0.04320987654320987,0,0,0.04320987654320987,29.29629629629629,0)" xlink:href="#bz"/><use transform="matrix(0.04320987654320987,0,0,0.04320987654320987,37.938271604938265,0)" xlink:href="#bA"/></g><path fill="#333" d="M44-68c0 29 11 47 38 47 30 0 42-19 51-41l28 9C148-21 126 4 82 4 31 4 10-29 12-85c3-77 74-140 146-93 12 8 15 23 18 40l-31 5c-1-22-13-36-36-36-52 0-65 49-65 101" id="bB"/><path fill="#333" d="M165-48c-4 18 1 34 23 27l-3 20c-29 8-62 0-52-35h-2C116-14 99 4 63 4 30 4 8-16 8-49c0-68 71-67 138-67 10-26 0-56-31-54-26 1-42 9-47 31l-32-5c8-67 160-71 144 15-5 28-9 54-15 81zM42-50c3 52 80 24 89-6 7-12 7-24 11-38-47 1-103-4-100 44" id="bC"/><path fill="#333" d="M6 0l50-261h32L37 0H6" id="bD"/><path fill="#333" d="M68-162c25-46 127-43 121 31C183-60 169 1 98 4 69 5 53-11 43-31L36 0H5l52-261h31zm88 36c2-27-9-43-34-43-55 0-70 51-70 103 0 29 15 45 43 46 52 0 58-58 61-106" id="bE"/><path fill="#333" d="M127 0L80-88 50-66 37 0H6l51-261h31L57-100l99-90h39l-93 82L161 0h-34" id="bF"/><g id="ag"><use transform="matrix(0.04320987654320987,0,0,0.04320987654320987,0,0)" xlink:href="#bB"/><use transform="matrix(0.04320987654320987,0,0,0.04320987654320987,7.777777777777776,0)" xlink:href="#bC"/><use transform="matrix(0.04320987654320987,0,0,0.04320987654320987,16.41975308641975,0)" xlink:href="#bD"/><use transform="matrix(0.04320987654320987,0,0,0.04320987654320987,19.83333333333333,0)" xlink:href="#bD"/><use transform="matrix(0.04320987654320987,0,0,0.04320987654320987,23.246913580246908,0)" xlink:href="#bE"/><use transform="matrix(0.04320987654320987,0,0,0.04320987654320987,31.88888888888888,0)" xlink:href="#bC"/><use transform="matrix(0.04320987654320987,0,0,0.04320987654320987,40.53086419753085,0)" xlink:href="#bB"/><use transform="matrix(0.04320987654320987,0,0,0.04320987654320987,48.30864197530863,0)" xlink:href="#bF"/><use transform="matrix(0.04320987654320987,0,0,0.04320987654320987,56.08641975308641,0)" xlink:href="#aC"/></g></defs></g></svg>